SplineFontDB: 3.0
FontName: allnighter
FullName: All-nighter
FamilyName: allnighter
Weight: Medium
Copyright: Copyright Daniel Hulme 2009.\nCreated with FontForge 2.0 (http://fontforge.sf.net)
UComments: "2009-2-1: Created." 
Version: 001.000
ItalicAngle: 0
UnderlinePosition: 100
UnderlineWidth: 50
Ascent: 792
Descent: 208
LayerCount: 2
Layer: 0 0 "Back" 
Layer: 1 0 "Fore" 
NeedsXUIDChange: 1
XUID: [1021 710 1036088000 13664443]
FSType: 8
OS2Version: 0
OS2_WeightWidthSlopeOnly: 0
OS2_UseTypoMetrics: 1
CreationTime: 1233496417
ModificationTime: 1237156824
PfmFamily: 49
TTFWeight: 500
TTFWidth: 5
LineGap: 0
VLineGap: 0
Panose: 2 0 6 9 0 0 0 0 0 4
OS2TypoAscent: 0
OS2TypoAOffset: 1
OS2TypoDescent: 0
OS2TypoDOffset: 1
OS2TypoLinegap: 0
OS2WinAscent: 792
OS2WinAOffset: 0
OS2WinDescent: 208
OS2WinDOffset: 0
HheadAscent: 792
HheadAOffset: 0
HheadDescent: -208
HheadDOffset: 0
OS2SubXSize: -17120
OS2SubYSize: 0
OS2SubXOff: 0
OS2SubYOff: 0
OS2SupXSize: -10672
OS2SupYSize: 0
OS2SupXOff: 26132
OS2SupYOff: 32703
OS2StrikeYSize: -10672
OS2StrikeYPos: 0
OS2Vendor: 'PfEd'
DEI: 0

StartChar: a
Encoding: 97 97 0
Width: 500
VWidth: 0
Flags: W
HStem: 0 78<157.35 322.23> 210 82<157.571 317.771> 375 83<150.467 327.478>
VStem: 41 84<107.618 179.147> 375 84<0 83 107.297 180.703 210 333.777>
LayerCount: 2
Fore
SplineSet
125 144 m 0
 125 108 181 78 250 78 c 0
 319 78 375 108 375 144 c 0
 375 180 319 210 250 210 c 0
 181 210 125 180 125 144 c 0
459 334 m 9
 459 0 l 25
 375 0 l 25
 375 83 l 17
 365 45 309 0 250 0 c 27
 150 0 41 47 41 147 c 27
 41 246 151 292 250 292 c 27
 308 292 361 243 375 210 c 9
 375 292 l 17
 375 335 309 375 250 375 c 27
 199 375 129 352 125 334 c 9
 51 375 l 17
 71 399 141 458 250 458 c 3
 345 458 459 390 459 334 c 9
EndSplineSet
EndChar

StartChar: H
Encoding: 72 72 1
Width: 500
VWidth: 0
Flags: W
HStem: 0 21G<41 125 375 459> 292 83<125 375> 647 20G<41 125 375 459>
VStem: 41 84<0 292 375 667> 375 84<0 292 375 667>
LayerCount: 2
Fore
SplineSet
41 0 m 25
 41 667 l 25
 125 667 l 25
 125 375 l 17
 375 375 l 9
 375 667 l 25
 459 667 l 25
 459 0 l 25
 375 0 l 25
 375 292 l 25
 125 292 l 25
 125 0 l 25
 41 0 l 25
EndSplineSet
Validated: 1
EndChar

StartChar: A
Encoding: 65 65 2
Width: 500
VWidth: 0
Flags: W
HStem: 0 21G<41 125 375 459> 292 83<125 375> 584 83<167.906 331.734>
VStem: 41 84<0 292 375 540.625> 375 84<0 292 375 541.886>
LayerCount: 2
Fore
SplineSet
375 375 m 25
 375 458 l 18
 375 528 349 584 250 584 c 3
 152 584 125 528 125 458 c 10
 125 375 l 25
 375 375 l 25
41 0 m 25
 41 458 l 18
 41 558 97 667 250 667 c 3
 400 667 459 558 459 458 c 10
 459 0 l 25
 375 0 l 25
 375 292 l 25
 125 292 l 25
 125 0 l 25
 41 0 l 25
EndSplineSet
EndChar

StartChar: B
Encoding: 66 66 3
Width: 500
VWidth: 0
Flags: W
HStem: 0 21G<41 341.5> 292 83<125 260.434> 584 83<125 258.463>
VStem: 41 84<83 292 375 584> 291 84<409.641 549.489> 375 84<115.307 231.48>
LayerCount: 2
Fore
SplineSet
125 292 m 25
 125 83 l 25
 280 83 l 18
 320 83 375 115 375 163 c 27
 375 227 313 292 273 292 c 10
 125 292 l 25
125 584 m 25
 125 375 l 25
 209 375 l 17
 267 375 291 431 291 493 c 1
 291 534 256 584 209 584 c 9
 125 584 l 25
41 0 m 25
 41 667 l 25
 250 667 l 17
 310 667 375 567 375 497 c 9
 375 497 367 359 313 347 c 1
 376 338 459 260 459 171 c 17
 459 85 365 0 318 0 c 9
 41 0 l 25
EndSplineSet
EndChar

StartChar: C
Encoding: 67 67 4
Width: 500
VWidth: 0
Flags: W
HStem: -11 67<186.318 315.776> 610 71<186.318 311.258>
VStem: 29 81<175.986 493.754>
LayerCount: 2
Fore
SplineSet
29 334 m 27
 29 494 90 681 250 681 c 27
 350 681 459 534 459 534 c 26
 379 534 l 26
 379 534 309 610 250 610 c 27
 129 610 110 451 110 334 c 8
 110 213 129 56 250 56 c 27
 307 56 380 124 380 124 c 26
 463 124 l 26
 463 124 348 -11 250 -11 c 27
 90 -11 29 174 29 334 c 27
EndSplineSet
Validated: 1
EndChar

StartChar: D
Encoding: 68 68 5
Width: 500
VWidth: 0
Flags: W
HStem: 0 21G<41 303.539> 584 83<125 250>
VStem: 41 84<83 584> 383 86<248.272 419.393>
LayerCount: 2
Fore
SplineSet
125 584 m 25
 125 83 l 25
 250 83 l 26
 250 83 383 223 383 334 c 27
 383 444 250 584 250 584 c 26
 125 584 l 25
41 0 m 25
 41 667 l 25
 293 667 l 26
 293 667 469 481 469 334 c 27
 469 187 293 0 293 0 c 26
 41 0 l 25
EndSplineSet
Validated: 1
EndChar

StartChar: E
Encoding: 69 69 6
Width: 500
VWidth: 0
Flags: W
HStem: 0 21G<41 459> 292 83<125 375> 584 83<125 459>
VStem: 41 84<83 292 375 584>
LayerCount: 2
Fore
SplineSet
41 0 m 25
 41 667 l 25
 459 667 l 25
 459 584 l 25
 125 584 l 25
 125 375 l 25
 375 375 l 25
 375 292 l 25
 125 292 l 25
 125 83 l 25
 459 83 l 25
 459 0 l 25
 41 0 l 25
EndSplineSet
Validated: 1
EndChar

StartChar: F
Encoding: 70 70 7
Width: 500
VWidth: 0
Flags: W
HStem: 0 21G<41 125> 292 83<125 375> 584 83<125 459>
VStem: 41 84<0 292 375 584>
LayerCount: 2
Fore
SplineSet
41 667 m 25
 459 667 l 25
 459 584 l 25
 125 584 l 25
 125 375 l 25
 375 375 l 25
 375 292 l 25
 125 292 l 25
 125 0 l 25
 41 0 l 25
 41 667 l 25
EndSplineSet
Validated: 1
EndChar

StartChar: G
Encoding: 71 71 9
Width: 500
VWidth: 0
Flags: W
HStem: 0 21G<158.5 309.5> 292 83<250 375> 584 83<194.023 352.076>
VStem: 41 84<175.466 488.509> 375 84<115.175 292 523 562.287>
LayerCount: 2
Fore
SplineSet
41 334 m 27
 41 488 94 667 250 667 c 1
 389 667 459 577 459 523 c 9
 375 523 l 17
 375 562 335 584 250 584 c 1
 151 584 125 443 125 334 c 27
 125 224 147 83 251 83 c 1
 310 83 375 113 375 153 c 9
 375 292 l 25
 250 292 l 25
 250 375 l 25
 459 375 l 25
 459 153 l 17
 459 58 369 0 250 0 c 1
 67 0 41 180 41 334 c 27
EndSplineSet
Validated: 1
EndChar

StartChar: I
Encoding: 73 73 10
Width: 500
VWidth: 0
Flags: W
HStem: 0 21G<41 459> 584 83<41 209 291 459>
VStem: 209 82<83 584>
LayerCount: 2
Fore
SplineSet
41 0 m 25
 41 83 l 25
 209 83 l 25
 209 584 l 25
 41 584 l 25
 41 667 l 25
 459 667 l 25
 459 584 l 25
 291 584 l 25
 291 83 l 25
 459 83 l 25
 459 0 l 25
 41 0 l 25
EndSplineSet
Validated: 1
EndChar

StartChar: J
Encoding: 74 74 11
Width: 500
VWidth: 0
Flags: W
HStem: 0 79<162.758 250.437> 584 83<41 291 375 459>
VStem: 291 84<160 584>
LayerCount: 2
Fore
SplineSet
41 584 m 25
 41 667 l 25
 459 667 l 25
 459 584 l 25
 375 584 l 25
 375 160 l 26
 375 160 299 0 209 0 c 27
 118 0 36 158 36 158 c 26
 116 158 l 26
 116 158 161 79 209 79 c 27
 253 79 291 158 291 158 c 26
 291 584 l 25
 41 584 l 25
EndSplineSet
Validated: 1
EndChar

StartChar: K
Encoding: 75 75 12
Width: 500
VWidth: 0
Flags: W
HStem: 0 21G<41 125 357.877 459> 647 20G<41 125 357.877 459>
VStem: 41 84<0 292 375 667>
LayerCount: 2
Fore
SplineSet
41 0 m 25
 41 667 l 25
 125 667 l 25
 125 375 l 25
 375 667 l 25
 459 667 l 25
 188 334 l 25
 459 0 l 25
 375 0 l 25
 125 292 l 25
 125 0 l 25
 41 0 l 25
EndSplineSet
Validated: 1
EndChar

StartChar: L
Encoding: 76 76 13
Width: 500
VWidth: 0
Flags: W
HStem: 0 21G<41 459> 647 20G<41 125>
VStem: 41 84<83 667>
LayerCount: 2
Fore
SplineSet
41 0 m 25
 41 667 l 25
 125 667 l 25
 125 83 l 25
 459 83 l 25
 459 0 l 25
 41 0 l 25
EndSplineSet
Validated: 1
EndChar

StartChar: M
Encoding: 77 77 14
Width: 500
VWidth: 0
Flags: W
HStem: 0 21G<41 125 375 459> 647 20G<41 136.962 363.038 459>
VStem: 41 84<0 511> 375 84<0 508>
LayerCount: 2
Fore
SplineSet
41 0 m 25
 41 667 l 25
 125 667 l 25
 250 458 l 25
 375 667 l 25
 459 667 l 25
 459 0 l 25
 375 0 l 25
 375 508 l 25
 291 334 l 25
 209 334 l 25
 125 511 l 17
 125 0 l 9
 41 0 l 25
EndSplineSet
EndChar

StartChar: h
Encoding: 104 104 15
Width: 500
VWidth: 0
Flags: HW
HStem: 0 21G<41 125 375 459> 647 20G<41 125>
VStem: 41 84<0 314.062 364 667 667 667> 375 84<0 331.081>
LayerCount: 2
Fore
SplineSet
41 0 m 25
 41 667 l 25
 125 667 l 25
 125 364 l 17
 125 434 217 458 291 458 c 24
 372 458 459 393 459 334 c 9
 459 0 l 25
 375 0 l 25
 375 282 l 17
 375 331 311 375 250 375 c 27
 180 375 125 308 125 246 c 9
 125 0 l 25
 41 0 l 25
EndSplineSet
EndChar

StartChar: N
Encoding: 78 78 16
Width: 500
VWidth: 0
Flags: W
HStem: 0 21G<41 125 346.741 459> 647 20G<41 158.943 375 459>
VStem: 41 84<0 557> 375 84<103 667>
LayerCount: 2
Fore
SplineSet
41 0 m 25
 41 667 l 25
 151 667 l 25
 375 103 l 25
 375 667 l 25
 459 667 l 25
 459 0 l 25
 355 0 l 25
 125 557 l 25
 125 0 l 25
 41 0 l 25
EndSplineSet
Validated: 1
EndChar

StartChar: O
Encoding: 79 79 17
Width: 500
VWidth: 0
Flags: W
HStem: 0 21G<105 395> 584 83<159.843 340.157>
VStem: 41 84<121.414 546.354> 375 84<121.414 546.354>
LayerCount: 2
Fore
SplineSet
291 584 m 10
 209 584 l 18
 169 584 125 548 125 458 c 10
 125 210 l 18
 125 120 169 83 209 83 c 10
 291 83 l 18
 331 83 375 120 375 210 c 10
 375 458 l 18
 375 548 331 584 291 584 c 10
41 210 m 10
 41 458 l 18
 41 548 85 667 125 667 c 10
 375 667 l 18
 415 667 459 548 459 458 c 10
 459 210 l 18
 459 120 415 0 375 0 c 10
 125 0 l 18
 85 0 41 120 41 210 c 10
EndSplineSet
EndChar

StartChar: P
Encoding: 80 80 18
Width: 500
VWidth: 0
Flags: W
HStem: 0 21G<41 125> 292 84<125 291> 584 83<125 291>
VStem: 41 84<0 292 376 584> 379 80<443.849 539.203>
LayerCount: 2
Fore
SplineSet
125 584 m 25
 125 376 l 25
 291 376 l 26
 291 376 379 439 379 498 c 27
 379 546 291 584 291 584 c 26
 125 584 l 25
41 0 m 25
 41 667 l 25
 291 667 l 26
 291 667 459 590 459 497 c 27
 459 393 291 292 291 292 c 26
 125 292 l 25
 125 0 l 25
 41 0 l 25
EndSplineSet
Validated: 1
EndChar

StartChar: Q
Encoding: 81 81 19
Width: 500
VWidth: 0
Flags: W
HStem: 83 21G<209 278.571> 584 83<159.843 340.157>
VStem: 41 84<121.414 546.354> 375 84<122.356 546.354>
LayerCount: 2
Fore
SplineSet
250 153 m 1
 332 153 l 1
 352 118 l 1
 366 139 375 169 375 210 c 2
 375 458 l 2
 375 548 331 584 291 584 c 2
 209 584 l 2
 169 584 125 548 125 458 c 2
 125 210 l 2
 125 120 169 83 209 83 c 2
 290 83 l 1
 250 153 l 1
41 210 m 2
 41 458 l 2
 41 548 85 667 125 667 c 2
 375 667 l 2
 415 667 459 548 459 458 c 2
 459 210 l 2
 459 144 436 62 407 23 c 1
 459 -66 l 1
 375 -66 l 1
 337 0 l 1
 125 0 l 2
 85 0 41 120 41 210 c 2
EndSplineSet
Validated: 1
EndChar

StartChar: R
Encoding: 82 82 20
Width: 500
VWidth: 0
Flags: W
HStem: 0 21G<41 125 363.63 459> 292 83<125 209> 584 83<125 291>
VStem: 41 84<0 292 375 584> 379 80<443.91 539.203>
LayerCount: 2
Fore
SplineSet
125 584 m 25
 125 375 l 25
 291 375 l 26
 291 375 379 439 379 498 c 27
 379 546 291 584 291 584 c 26
 125 584 l 25
125 0 m 25
 41 0 l 25
 41 667 l 25
 291 667 l 26
 291 667 459 590 459 497 c 27
 459 394 291 292 291 292 c 25
 459 0 l 25
 375 0 l 25
 209 292 l 25
 125 292 l 25
 125 0 l 25
EndSplineSet
Validated: 1
EndChar

StartChar: T
Encoding: 84 84 21
Width: 500
VWidth: 0
Flags: W
HStem: 0 21G<209 291> 584 83<41 209 291 459>
VStem: 209 82<0 584>
LayerCount: 2
Fore
SplineSet
41 584 m 25
 41 667 l 25
 459 667 l 25
 459 584 l 25
 291 584 l 25
 291 0 l 25
 209 0 l 25
 209 584 l 25
 41 584 l 25
EndSplineSet
Validated: 1
EndChar

StartChar: U
Encoding: 85 85 22
Width: 500
VWidth: 0
Flags: W
HStem: 0 21G<192 308> 647 20G<41 125 375 459>
VStem: 41 84<138.383 667> 375 84<143.46 667>
LayerCount: 2
Fore
SplineSet
251 83 m 24
 275 83 293 87 311 98 c 0
 327 108 341 122 352 138 c 0
 360 148 366 160 370 172 c 0
 374 184 375 197 375 210 c 2
 375 667 l 1
 459 667 l 1
 459 210 l 2
 459 83 366 0 250 0 c 27
 134 0 41 83 41 210 c 2
 41 667 l 1
 125 667 l 1
 125 210 l 2
 125 198 125 186 128 174 c 0
 131 163 136 152 142 142 c 0
 153 124 168 108 187 98 c 0
 187 98 225 83 251 83 c 24
EndSplineSet
Validated: 1
EndChar

StartChar: Z
Encoding: 90 90 23
Width: 500
VWidth: 0
Flags: W
HStem: 0 21G<41 459> 584 83<41 375>
LayerCount: 2
Fore
SplineSet
459 83 m 1
 459 0 l 1
 41 0 l 9
 41 83 l 25
 375 584 l 25
 41 584 l 25
 41 667 l 25
 459 667 l 25
 459 584 l 25
 125 83 l 25
 459 83 l 1
EndSplineSet
Validated: 1
EndChar

StartChar: exclam
Encoding: 33 33 56
Width: 500
VWidth: 0
Flags: W
HStem: -83 83<209 291> 647 20G<209 291>
VStem: 209 82<-83 0 127 667>
LayerCount: 2
Fore
SplineSet
209 0 m 1
 291 0 l 1
 291 -83 l 1
 209 -83 l 1
 209 0 l 1
209 667 m 1
 291 667 l 1
 291 127 l 1
 209 127 l 1
 209 667 l 1
EndSplineSet
EndChar

StartChar: quotedbl
Encoding: 34 34 57
Width: 500
VWidth: 0
Flags: W
HStem: 521 146<125 209 291 375>
VStem: 125 84<521 667> 291 84<521 667>
LayerCount: 2
Fore
SplineSet
291 667 m 1
 375 667 l 1
 375 521 l 1
 291 521 l 1
 291 667 l 1
125 667 m 1
 209 667 l 1
 209 521 l 1
 125 521 l 1
 125 667 l 1
EndSplineSet
EndChar

StartChar: numbersign
Encoding: 35 35 58
Width: 500
VWidth: 0
Flags: HW
HStem: 83 21G<125 209 291 375> 210 82<41 125 209 291 375 459> 375 83<41 125 209 291 375 459>
VStem: 125 84<83 210 292 375 458 584> 291 84<84 210 292 375 458 584>
LayerCount: 2
Fore
SplineSet
209 83 m 25
 125 83 l 25
 125 210 l 25
 41 210 l 25
 41 292 l 25
 125 292 l 25
 125 375 l 25
 41 375 l 25
 41 458 l 25
 125 458 l 25
 125 584 l 25
 209 584 l 25
 209 458 l 25
 291 458 l 25
 291 584 l 25
 375 584 l 25
 375 458 l 25
 459 458 l 25
 459 375 l 25
 375 375 l 25
 375 292 l 25
 459 292 l 25
 459 210 l 25
 375 210 l 25
 375 83 l 25
 291 83 l 25
 291 210 l 25
 209 210 l 25
 209 83 l 25
209 375 m 25
 209 292 l 25
 291 292 l 25
 291 375 l 25
 209 375 l 25
EndSplineSet
EndChar

StartChar: dollar
Encoding: 36 36 59
Width: 500
VWidth: 0
Flags: HW
HStem: 0 21G<209 291> 85 59<147.659 209 291 345.646> 294 81<139.558 209 291 339.182> 518 63<164.7 209 291 348.981> 647 20G<209 291>
VStem: 41 84<168.7 210 390.879 481.95> 209 82<0 85 144 289 375 518 581 667> 375 84<171.083 262.757 458 492.024>
CounterMasks: 1 07
LayerCount: 2
Fore
SplineSet
209 667 m 1
 291 667 l 1
 291 581 l 1
 375 571 459 529 459 458 c 1
 375 458 l 1
 375 488 335 509 291 518 c 1
 291 371 l 1
 379 358 459 305 459 217 c 0
 459 134 376 95 291 85 c 1
 291 0 l 1
 209 0 l 1
 209 85 l 1
 125 85 41 128 41 210 c 1
 125 210 l 1
 125 168 165 150 209 144 c 1
 209 294 l 1
 124 304 41 344 41 428 c 0
 41 516 121 569 209 581 c 1
 209 667 l 1
209 375 m 1
 209 518 l 1
 163 506 125 475 125 428 c 0
 125 388 166 375 209 375 c 1
291 289 m 1
 291 144 l 1
 335 152 375 173 375 217 c 0
 375 260 335 281 291 289 c 1
EndSplineSet
EndChar

StartChar: percent
Encoding: 37 37 60
Width: 500
VWidth: 0
Flags: HW
HStem: 0 49<311.44 398.56> 161 48<311.44 398.56> 458 49<101.655 188.647> 619 48<101.655 188.647>
VStem: 41 48<519.155 607.302> 201 49<519.155 607.302> 251 48<61.3531 148.345> 411 48<61.3531 148.345>
LayerCount: 2
Fore
SplineSet
299 105 m 0
 299 74 324 49 355 49 c 0
 386 49 411 74 411 105 c 0
 411 136 386 161 355 161 c 0
 324 161 299 136 299 105 c 0
251 105 m 0
 251 162 297 209 355 209 c 0
 413 209 459 162 459 105 c 0
 459 47 413 0 355 0 c 0
 297 0 251 47 251 105 c 0
89 563 m 0
 89 532 114 507 145 507 c 0
 176 507 201 532 201 563 c 0
 201 594 176 619 145 619 c 0
 114 619 89 594 89 563 c 0
41 562 m 0
 41 620 88 667 145 667 c 0
 203 667 251 620 251 562 c 0
 251 505 203 458 145 458 c 0
 88 458 41 505 41 562 c 0
125 0 m 25
 41 0 l 25
 375 667 l 25
 459 667 l 25
 125 0 l 25
EndSplineSet
EndChar

StartChar: ampersand
Encoding: 38 38 61
Width: 500
VWidth: 0
Flags: W
HStem: 0 21G<156.5 238.5 365.588 459> 600 67<160.101 234.603>
VStem: 41 63<133.983 309.535> 86 63<463.328 590.331> 250 64<480.326 586.062> 392 67<136.633 210>
LayerCount: 2
Fore
SplineSet
186 443 m 1xdc
 211 463 250 489 250 531 c 27
 250 565 229 600 195 600 c 27
 165 600 149 568 149 538 c 27
 149 498 165 467 186 443 c 1xdc
171 361 m 17
 117 326 104 261 104 210 c 3xec
 104 160 136 83 209 83 c 1
 275 83 278 87 315 106 c 9
 171 361 l 17
392 210 m 9
 459 210 l 17
 459 158 445 119 408 83 c 9
 459 0 l 25
 375 0 l 25
 351 51 l 17
 316 26 268 0 209 0 c 27
 104 0 41 105 41 210 c 27xec
 41 295 64 351 137 405 c 1
 107 449 86 486 86 543 c 27xdc
 86 608 133 667 198 667 c 27
 266 667 314 605 314 537 c 27
 314 469 253 415 221 391 c 9
 370 135 l 17
 387 148 392 180 392 210 c 9
EndSplineSet
Validated: 1
EndChar

StartChar: quotesingle
Encoding: 39 39 62
Width: 500
VWidth: 0
Flags: W
HStem: 519 148<209 291>
VStem: 209 82<519 667>
LayerCount: 2
Fore
SplineSet
209 667 m 1
 291 667 l 1
 291 519 l 1
 209 519 l 1
 209 667 l 1
EndSplineSet
EndChar

StartChar: parenleft
Encoding: 40 40 63
Width: 500
VWidth: 0
Flags: W
HStem: 0 21G<337.5 459> 647 20G<354.5 459>
VStem: 209 82<214.068 442.182>
LayerCount: 2
Fore
SplineSet
375 667 m 9
 459 667 l 17
 375 591 291 479 291 334 c 27
 291 188 382 78 459 0 c 9
 375 0 l 17
 300 83 209 189 209 334 c 27
 209 479 334 629 375 667 c 9
EndSplineSet
EndChar

StartChar: asterisk
Encoding: 42 42 65
Width: 500
VWidth: 0
Flags: W
VStem: 209 82<130 292 375 539>
LayerCount: 2
Fore
SplineSet
209 375 m 25
 209 539 l 25
 291 539 l 25
 291 375 l 25
 375 458 l 25
 459 446 l 25
 349 334 l 25
 459 222 l 25
 375 210 l 25
 291 292 l 25
 291 130 l 25
 209 130 l 25
 209 292 l 25
 125 210 l 25
 41 221 l 25
 157 334 l 25
 41 447 l 25
 125 458 l 25
 209 375 l 25
EndSplineSet
EndChar

StartChar: plus
Encoding: 43 43 66
Width: 500
VWidth: 0
Flags: W
HStem: 292 83<41 209 291 459>
VStem: 209 82<127 292 375 537>
LayerCount: 2
Fore
SplineSet
41 292 m 25
 41 375 l 25
 209 375 l 25
 209 537 l 25
 291 537 l 25
 291 375 l 25
 459 375 l 25
 459 292 l 25
 291 292 l 25
 291 127 l 25
 209 127 l 25
 209 292 l 25
 41 292 l 25
EndSplineSet
EndChar

StartChar: comma
Encoding: 44 44 67
Width: 500
VWidth: 0
Flags: W
HStem: 0 125<189 250>
VStem: 189 139<0 125> 250 78<-100.816 0>
LayerCount: 2
Fore
SplineSet
250 0 m 1xa0
 189 0 l 1
 189 125 l 1
 328 125 l 1
 328 0 l 1xc0
 328 -83 304 -145 209 -166 c 1
 234 -131 250 -63 250 0 c 1xa0
EndSplineSet
Validated: 1
EndChar

StartChar: hyphen
Encoding: 45 45 68
Width: 500
VWidth: 0
Flags: W
HStem: 292 83<125 375>
VStem: 125 250<292 375>
LayerCount: 2
Fore
SplineSet
125 375 m 1
 375 375 l 1
 375 292 l 1
 125 292 l 1
 125 375 l 1
EndSplineSet
Validated: 1
EndChar

StartChar: period
Encoding: 46 46 69
Width: 500
VWidth: 0
Flags: W
HStem: 0 127<187 314>
VStem: 187 127<0 127>
LayerCount: 2
Fore
SplineSet
187 0 m 1
 187 127 l 1
 314 127 l 1
 314 0 l 1
 187 0 l 1
EndSplineSet
Validated: 1
EndChar

StartChar: slash
Encoding: 47 47 70
Width: 500
VWidth: 0
Flags: W
HStem: 647 20G<366.093 459>
LayerCount: 2
Fore
SplineSet
125 -83 m 25
 41 -83 l 25
 375 667 l 25
 459 667 l 25
 125 -83 l 25
EndSplineSet
Validated: 1
EndChar

StartChar: zero
Encoding: 48 48 71
Width: 500
VWidth: 0
Flags: W
HStem: 0 21G<192.5 307.5> 292 83<209 291> 584 83<200.753 299.247>
VStem: 41 84<195.122 472.633> 209 82<292 375> 375 84<195.122 472.633>
CounterMasks: 1 1c
LayerCount: 2
Fore
SplineSet
209 375 m 1
 291 375 l 1
 291 292 l 1
 209 292 l 1
 209 375 l 1
125 334 m 0
 125 195 181 83 250 83 c 0
 319 83 375 195 375 334 c 0
 375 473 319 584 250 584 c 0
 181 584 125 473 125 334 c 0
41 334 m 0
 41 518 135 667 250 667 c 0
 365 667 459 518 459 334 c 0
 459 150 365 0 250 0 c 0
 135 0 41 150 41 334 c 0
EndSplineSet
Validated: 1
EndChar

StartChar: one
Encoding: 49 49 72
Width: 500
VWidth: 0
Flags: W
HStem: 0 21G<209 291> 647 20G<192.923 291>
VStem: 209 82<0 560>
LayerCount: 2
Fore
SplineSet
125 458 m 25
 41 458 l 25
 209 667 l 25
 291 667 l 25
 291 0 l 25
 209 0 l 25
 209 560 l 25
 125 458 l 25
EndSplineSet
EndChar

StartChar: two
Encoding: 50 50 73
Width: 500
VWidth: 0
Flags: W
HStem: 0 21G<41 459> 584 83<148.549 318.37>
VStem: 41 84<521 560.947> 375 84<379.569 526.528>
LayerCount: 2
Fore
SplineSet
125 521 m 9
 41 521 l 17
 41 612 151 667 250 667 c 27
 365 667 459 573 459 458 c 3
 459 302 336 292 125 83 c 9
 459 83 l 25
 459 0 l 25
 41 0 l 25
 41 106 l 17
 250 315 375 326 375 458 c 3
 375 527 319 584 250 584 c 27
 195 584 125 573 125 521 c 9
EndSplineSet
EndChar

StartChar: three
Encoding: 51 51 74
Width: 500
VWidth: 0
Flags: W
HStem: 0 21G<189.5 310.5> 584 83<125 375>
VStem: 41 84<132.023 210> 375 84<147.111 317.626>
LayerCount: 2
Fore
SplineSet
125 584 m 25
 41 667 l 25
 459 667 l 25
 459 584 l 25
 291 458 l 17
 368 458 459 340 459 229 c 27
 459 108 371 0 250 0 c 27
 129 0 41 117 41 229 c 9
 125 210 l 17
 125 124 181 83 250 83 c 27
 325 83 375 154 375 229 c 27
 375 315 341 375 209 375 c 9
 209 458 l 25
 375 584 l 25
 125 584 l 25
EndSplineSet
EndChar

StartChar: four
Encoding: 52 52 75
Width: 500
VWidth: 0
Flags: W
HStem: 0 21G<250 332> 210 82<125 250 332 459> 647 20G<159.333 250>
VStem: 250 82<0 210 292 458>
LayerCount: 2
Fore
SplineSet
166 667 m 25
 250 667 l 25
 125 292 l 25
 250 292 l 25
 250 458 l 25
 332 458 l 25
 332 292 l 25
 459 292 l 25
 459 210 l 25
 332 210 l 25
 332 0 l 25
 250 0 l 25
 250 210 l 25
 41 210 l 25
 41 292 l 25
 166 667 l 25
EndSplineSet
EndChar

StartChar: five
Encoding: 53 53 76
Width: 500
VWidth: 0
Flags: W
HStem: 0 21G<192 310.5> 375 83<168.473 313.031> 584 83<184 459>
VStem: 41 84<139.055 210> 375 84<140.613 302.956>
LayerCount: 2
Fore
SplineSet
125 667 m 25
 459 667 l 25
 459 584 l 25
 184 584 l 25
 139 418 l 17
 184 452 230 458 291 458 c 27
 402 458 459 340 459 229 c 27
 459 108 371 0 250 0 c 27
 134 0 41 83 41 210 c 9
 125 210 l 17
 125 140 181 83 250 83 c 27
 319 83 375 140 375 210 c 27
 375 291 331 375 250 375 c 27
 167 375 93 360 41 334 c 9
 41 375 l 25
 125 667 l 25
EndSplineSet
EndChar

StartChar: six
Encoding: 54 54 77
Width: 500
VWidth: 0
Flags: W
HStem: 0 21G<118.5 379> 292 83<152.676 347.324> 584 83<152.444 362.412>
VStem: 41 84<102.481 265.418 292 555.625> 375 84<103.491 145 145 265.409 550 571.68>
LayerCount: 2
Fore
SplineSet
209 292 m 27
 163 292 125 256 125 210 c 27
 125 182 125 167 125 139 c 27
 125 100 170 83 209 83 c 27
 241 83 259 83 291 83 c 27
 332 83 375 104 375 145 c 27
 375 170 375 185 375 210 c 27
 375 256 337 292 291 292 c 27
 259 292 241 292 209 292 c 27
160 667 m 27
 229 667 267 667 336 667 c 27
 402 667 444 608 459 550 c 9
 375 519 l 17
 375 570 353 584 291 584 c 3
 259 584 241 584 209 584 c 3
 132 584 125 517 125 458 c 27
 125 393 125 357 125 292 c 17
 125 367 163 375 209 375 c 27
 263 375 293 375 347 375 c 27
 413 375 459 313 459 247 c 27
 459 196 459 166 459 115 c 27
 459 53 410 0 348 0 c 27
 271 0 227 0 150 0 c 27
 87 0 41 57 41 120 c 27
 41 266 41 348 41 494 c 27
 41 576 78 667 160 667 c 27
EndSplineSet
EndChar

StartChar: seven
Encoding: 55 55 78
Width: 500
VWidth: 0
Flags: W
HStem: 0 21G<28 136.438> 292 83<84 208 339 459> 584 83<41 375>
LayerCount: 2
Fore
SplineSet
375 584 m 1
 41 584 l 1
 41 667 l 1
 459 667 l 1
 459 584 l 1
 339 375 l 1
 459 375 l 1
 459 292 l 1
 292 292 l 1
 125 0 l 1
 28 0 l 1
 208 292 l 1
 84 292 l 1
 84 375 l 1
 255 375 l 1
 375 584 l 1
EndSplineSet
Validated: 1
EndChar

StartChar: eight
Encoding: 56 56 79
Width: 500
VWidth: 0
Flags: HW
HStem: 0 21G<192 308> 334 85<192.321 303.37> 584 83<192.284 306.768>
VStem: 41 84<140.847 280.463> 86 81<443.561 560.63> 329 84<443.719 562.037> 375 84<140.847 279.126>
LayerCount: 2
Fore
SplineSet
125 210 m 0xf2
 125 140 181 83 250 83 c 0
 319 83 375 140 375 210 c 0
 375 280 318 334 249 334 c 0
 180 334 125 280 125 210 c 0xf2
167 503 m 0xec
 167 456 195 419 250 419 c 0
 305 419 329 464 329 506 c 0
 329 554 299 584 250 584 c 0
 200 584 167 552 167 503 c 0xec
250 667 m 27
 340 667 413 592 413 502 c 27xec
 413 447 382 395 351 375 c 1
 400 340 459 287 459 210 c 27
 459 94 366 0 250 0 c 27
 134 0 41 94 41 210 c 27xf2
 41 286 112 341 147 375 c 1
 109 393 86 446 86 500 c 27
 86 591 159 667 250 667 c 27
EndSplineSet
EndChar

StartChar: colon
Encoding: 58 58 81
Width: 500
VWidth: 0
Flags: W
HStem: -42 166<196.736 303.264> 292 166<196.736 303.264>
VStem: 171 158<-16.327 98.327 317.673 432.327>
LayerCount: 2
Fore
SplineSet
171 375 m 0
 171 421 206 458 250 458 c 0
 294 458 329 421 329 375 c 0
 329 329 294 292 250 292 c 0
 206 292 171 329 171 375 c 0
171 41 m 0
 171 87 206 124 250 124 c 0
 294 124 329 87 329 41 c 0
 329 -5 294 -42 250 -42 c 0
 206 -42 171 -5 171 41 c 0
EndSplineSet
Validated: 1
EndChar

StartChar: semicolon
Encoding: 59 59 82
Width: 500
VWidth: 0
Flags: W
HStem: 0 147<171 250> 251 166<196.736 303.264>
VStem: 171 158<0 147 276.673 391.327> 250 78<-100.816 0>
LayerCount: 2
Fore
SplineSet
250 0 m 1xd0
 171 0 l 1
 171 147 l 1xe0
 328 147 l 1
 328 0 l 1
 328 -83 304 -145 209 -166 c 1
 234 -131 250 -63 250 0 c 1xd0
171 334 m 0
 171 380 206 417 250 417 c 0xd0
 294 417 329 380 329 334 c 0xe0
 329 288 294 251 250 251 c 0xd0
 206 251 171 288 171 334 c 0
EndSplineSet
Validated: 1
EndChar

StartChar: less
Encoding: 60 60 83
Width: 500
VWidth: 0
Flags: W
HStem: 83 21G<343.038 459>
LayerCount: 2
Fore
SplineSet
41 375 m 25
 375 584 l 25
 459 584 l 25
 459 534 l 25
 125 334 l 25
 459 131 l 25
 459 83 l 25
 375 83 l 25
 41 292 l 25
 41 375 l 25
EndSplineSet
Validated: 1
EndChar

StartChar: equal
Encoding: 61 61 84
Width: 500
VWidth: 0
Flags: W
HStem: 210 82<81 419> 375 83<81 419>
LayerCount: 2
Fore
SplineSet
81 458 m 1
 419 458 l 1
 419 375 l 1
 81 375 l 1
 81 458 l 1
81 292 m 1
 419 292 l 1
 419 210 l 1
 81 210 l 1
 81 292 l 1
EndSplineSet
EndChar

StartChar: question
Encoding: 63 63 86
Width: 500
VWidth: 0
Flags: W
HStem: 0 21G<209 291> 63 20G<209 291> 584 83<177.982 318.37>
VStem: 41 84<458 530.826> 209 82<0 83 176 271.643> 375 84<386.121 526.528>
CounterMasks: 1 1c
LayerCount: 2
Fore
SplineSet
209 0 m 1
 209 83 l 1
 291 83 l 1
 291 0 l 1
 209 0 l 1
41 458 m 17
 41 544 135 667 250 667 c 27
 365 667 459 573 459 458 c 3
 459 384 399 340 354 308 c 0
 321 284 291 272 291 176 c 9
 209 176 l 17
 209 280 266 329 313 358 c 0
 349 380 375 383 375 458 c 3
 375 527 319 584 250 584 c 27
 181 584 125 533 125 458 c 9
 41 458 l 17
EndSplineSet
EndChar

StartChar: at
Encoding: 64 64 87
Width: 500
VWidth: 0
Flags: W
HStem: 0 21G<209.5 459> 187 62<288.041 358.986> 402 56<287.116 356.802> 584 83<189.394 315.27>
VStem: 41 84<204.468 491.75> 209 60<266.313 384.1> 375 84<263.792 385.011 443.006 507.486>
LayerCount: 2
Fore
SplineSet
269 324 m 0
 269 286 294 249 323 249 c 0
 352 249 375 286 375 324 c 0
 375 362 351 402 322 402 c 0
 293 402 269 362 269 324 c 0
459 83 m 25
 459 0 l 25
 393 0 357 0 291 0 c 27
 128 0 41 171 41 334 c 27
 41 487 97 667 250 667 c 27
 403 667 459 523 459 334 c 3
 459 286 459 244 459 187 c 25
 426 187 408 187 375 187 c 27
 289 187 209 220 209 334 c 3
 209 392 246 458 291 458 c 3
 329 458 369 446 375 411 c 1
 375 506 333 584 250 584 c 27
 141 584 125 443 125 334 c 27
 125 217 174 83 291 83 c 27
 357 83 393 83 459 83 c 25
EndSplineSet
EndChar

StartChar: S
Encoding: 83 83 88
Width: 500
VWidth: 0
Flags: W
HStem: 0 21G<197 308> 292 82<164.371 335.629> 584 83<181.752 343.212>
VStem: 41 84<114.663 172 408.521 526.748> 375 84<140.847 256.816 521 554.71>
LayerCount: 2
Fore
SplineSet
250 667 m 27
 349 667 459 604 459 521 c 9
 375 521 l 17
 375 561 305 584 251 584 c 27
 181 584 125 528 125 458 c 27
 125 399 191 374 250 374 c 27
 354 374 459 314 459 210 c 27
 459 94 366 0 250 0 c 27
 144 0 41 34 41 172 c 9
 125 172 l 17
 125 99 190 83 250 83 c 27
 319 83 375 140 375 210 c 27
 375 268 308 292 250 292 c 27
 146 292 41 354 41 458 c 27
 41 573 135 667 250 667 c 27
EndSplineSet
EndChar

StartChar: V
Encoding: 86 86 89
Width: 500
VWidth: 0
Flags: W
HStem: 0 21G<203.963 296.037> 647 20G<41 129.579 370.421 459>
LayerCount: 2
Fore
SplineSet
41 667 m 25
 125 667 l 25
 250 121 l 25
 375 667 l 25
 459 667 l 25
 291 0 l 25
 209 0 l 25
 41 667 l 25
EndSplineSet
Validated: 1
EndChar

StartChar: W
Encoding: 87 87 90
Width: 500
VWidth: 0
Flags: W
HStem: 0 21G<117 218.88 281.12 382.905> 647 20G<41 125 375 458>
VStem: 41 84<210 667> 209 82<210 292> 375 83<210 667>
LayerCount: 2
Fore
SplineSet
41 210 m 25
 41 667 l 25
 125 667 l 25
 125 210 l 25
 166 104 l 25
 209 210 l 25
 209 292 l 25
 291 292 l 25
 291 210 l 25
 332 104 l 25
 375 210 l 25
 375 667 l 25
 458 667 l 25
 458 210 l 25
 375 0 l 25
 291 0 l 25
 250 83 l 25
 209 0 l 25
 125 0 l 25
 41 210 l 25
EndSplineSet
Validated: 1
EndChar

StartChar: X
Encoding: 88 88 91
Width: 500
VWidth: 0
Flags: W
HStem: 0 21G<41 135 365 459> 647 20G<41 135 365 459>
LayerCount: 2
Fore
SplineSet
41 667 m 1
 125 667 l 1
 250 417 l 1
 375 667 l 1
 459 667 l 1
 291 334 l 1
 459 0 l 1
 375 0 l 1
 250 250 l 1
 125 0 l 1
 41 0 l 1
 209 334 l 1
 41 667 l 1
EndSplineSet
EndChar

StartChar: Y
Encoding: 89 89 92
Width: 500
VWidth: 0
Flags: W
HStem: 0 21G<209 291> 647 20G<41 133.562 366.438 459>
VStem: 209 82<0 292>
LayerCount: 2
Fore
SplineSet
41 667 m 25
 125 667 l 25
 250 375 l 25
 375 667 l 25
 459 667 l 25
 291 292 l 25
 291 0 l 25
 209 0 l 25
 209 292 l 25
 41 667 l 25
EndSplineSet
Validated: 1
EndChar

StartChar: bracketleft
Encoding: 91 91 93
Width: 500
VWidth: 0
Flags: W
HStem: -83 83<291 419> 667 83<291 419>
VStem: 209 82<0 667> 209 210<-83 0 667 750>
LayerCount: 2
Fore
SplineSet
209 -83 m 25xd0
 209 750 l 25
 419 750 l 25
 419 667 l 25xd0
 291 667 l 25
 291 0 l 25xe0
 419 0 l 25
 419 -83 l 25
 209 -83 l 25xd0
EndSplineSet
EndChar

StartChar: backslash
Encoding: 92 92 94
Width: 500
VWidth: 0
Flags: HW
HStem: 647 20G<49.9067 125>
LayerCount: 2
Fore
SplineSet
375 -83 m 25
 41 667 l 25
 125 667 l 25
 459 -83 l 25
 375 -83 l 25
EndSplineSet
EndChar

StartChar: bracketright
Encoding: 93 93 95
Width: 500
VWidth: 0
Flags: W
HStem: -83 83<81 209> 667 83<81 209>
VStem: 81 210<-83 0 667 750> 209 82<0 667>
LayerCount: 2
Fore
SplineSet
291 -83 m 25xe0
 81 -83 l 25
 81 0 l 25xe0
 209 0 l 25
 209 667 l 25xd0
 81 667 l 25
 81 750 l 25
 291 750 l 25
 291 -83 l 25xe0
EndSplineSet
EndChar

StartChar: asciicircum
Encoding: 94 94 96
Width: 500
VWidth: 0
Flags: W
HStem: 458 209
LayerCount: 2
Fore
SplineSet
41 458 m 25
 209 667 l 25
 291 667 l 25
 459 458 l 25
 375 458 l 25
 250 610 l 25
 125 458 l 25
 41 458 l 25
EndSplineSet
EndChar

StartChar: underscore
Encoding: 95 95 97
Width: 500
VWidth: 0
Flags: W
HStem: -83 83<41 459>
LayerCount: 2
Fore
SplineSet
41 0 m 1
 459 0 l 1
 459 -83 l 1
 41 -83 l 1
 41 0 l 1
EndSplineSet
Validated: 1
EndChar

StartChar: grave
Encoding: 96 96 98
Width: 500
VWidth: 0
Flags: W
HStem: 458 209
VStem: 125 250
LayerCount: 2
Fore
SplineSet
125 667 m 9
 291 667 l 17
 291 566 l 1
 375 458 l 1
 291 458 l 1
 125 667 l 9
EndSplineSet
EndChar

StartChar: b
Encoding: 98 98 99
Width: 500
VWidth: 0
Flags: W
HStem: 0 81<185.148 313.582> 375 83<185.08 315.439> 647 20G<41 125>
VStem: 41 84<0 83 146.576 310.791 375 667 667 667> 375 84<147.061 309.07>
LayerCount: 2
Fore
SplineSet
125 229 m 0
 125 148 181 81 250 81 c 0
 319 81 375 148 375 229 c 0
 375 310 319 375 250 375 c 0
 181 375 125 310 125 229 c 0
125 0 m 25
 41 0 l 25
 41 667 l 25
 125 667 l 25
 125 375 l 17
 125 424 192 458 250 458 c 27
 376 458 459 336 459 210 c 27
 459 94 366 0 250 0 c 27
 191 0 151 39 125 83 c 9
 125 0 l 25
EndSplineSet
EndChar

StartChar: c
Encoding: 99 99 100
Width: 500
VWidth: 0
Flags: W
HStem: 0 21G<189.5 316> 374 84<185.455 326.924>
VStem: 41 84<147.111 310.72> 375 84<119.237 154 292 332.592>
LayerCount: 2
Fore
SplineSet
459 292 m 9
 375 292 l 17
 375 334 308 374 250 374 c 27
 175 374 125 304 125 229 c 27
 125 154 175 83 250 83 c 27
 306 83 375 115 375 154 c 9
 459 154 l 17
 459 69 382 0 250 0 c 3
 129 0 41 108 41 229 c 27
 41 350 129 458 250 458 c 27
 354 458 459 381 459 292 c 9
EndSplineSet
EndChar

StartChar: d
Encoding: 100 100 101
Width: 500
VWidth: 0
Flags: W
HStem: 0 81<186.418 314.852> 375 83<184.561 314.92> 647 20G<375 459>
VStem: 41 84<147.061 309.07> 375 84<0 83 146.576 310.791 375 667>
LayerCount: 2
Fore
SplineSet
375 229 m 0
 375 310 319 375 250 375 c 0
 181 375 125 310 125 229 c 0
 125 148 181 81 250 81 c 0
 319 81 375 148 375 229 c 0
375 0 m 25
 375 83 l 17
 349 39 309 0 250 0 c 27
 134 0 41 94 41 210 c 27
 41 336 124 458 250 458 c 27
 308 458 375 424 375 375 c 9
 375 667 l 25
 459 667 l 25
 459 0 l 25
 375 0 l 25
EndSplineSet
EndChar

StartChar: e
Encoding: 101 101 102
Width: 500
VWidth: 0
Flags: W
HStem: 0 21G<189.5 312.5> 229 63<136 361> 375 83<180.564 315.598>
VStem: 41 84<142.172 229> 375 84<111.566 154>
LayerCount: 2
Fore
SplineSet
250 375 m 27
 195 375 141 334 136 292 c 9
 361 292 l 17
 353 334 304 375 250 375 c 27
250 458 m 27
 371 458 459 360 459 229 c 9
 125 229 l 17
 125 135 175 83 250 83 c 27
 306 83 375 98 375 154 c 9
 459 154 l 17
 459 78 375 0 250 0 c 3
 129 0 41 108 41 229 c 27
 41 350 129 458 250 458 c 27
EndSplineSet
EndChar

StartChar: f
Encoding: 102 102 103
Width: 500
VWidth: 0
Flags: W
HStem: 0 21G<125 209> 292 83<41 125 209 333> 584 83<231.747 352.688>
VStem: 125 84<0 292 375 560.595> 375 84<516 562.241>
LayerCount: 2
Fore
SplineSet
125 292 m 25
 41 292 l 25
 41 375 l 25
 125 375 l 25
 125 517 l 17
 125 607 212 667 289 667 c 0
 290 667 290 667 291 667 c 1
 375 667 459 603 459 516 c 9
 375 516 l 17
 375 558 341 584 291 584 c 1
 246 584 209 553 209 517 c 9
 209 375 l 25
 333 375 l 25
 333 292 l 25
 209 292 l 25
 209 0 l 25
 125 0 l 25
 125 292 l 25
EndSplineSet
EndChar

StartChar: g
Encoding: 103 103 104
Width: 500
VWidth: 0
Flags: HW
HStem: -166 83<158.667 321.028> 0 21G<187 279.5> 63 20G<375 375> 377 81<186.418 314.852>
VStem: 41 84<-59.2341 -31 148.93 310.939> 375 84<-22.9031 38.5579 147.209 311.424 375 458>
LayerCount: 2
Fore
SplineSet
375 229 m 0
 375 310 319 377 250 377 c 0
 181 377 125 310 125 229 c 0
 125 148 181 83 250 83 c 0
 319 83 375 148 375 229 c 0
375 83 m 1
 375 34 309 0 250 0 c 27
 124 0 41 122 41 248 c 27
 41 364 134 458 250 458 c 27
 309 458 349 421 375 377 c 9
 375 458 l 25
 459 458 l 25
 459 279 459 179 459 0 c 27
 459 -104 354 -166 250 -166 c 27
 144 -166 41 -77 41 7 c 9
 130 -31 l 17
 130 -74 199 -83 250 -83 c 27
 331 -83 375 -24 375 83 c 1
EndSplineSet
EndChar

StartChar: i
Encoding: 105 105 105
Width: 500
VWidth: 0
Flags: W
HStem: 0 21G<209 291> 502 82<209 291>
VStem: 209 82<0 375 502 584>
LayerCount: 2
Fore
SplineSet
209 584 m 1
 291 584 l 1
 291 502 l 1
 209 502 l 1
 209 584 l 1
291 458 m 25
 291 0 l 25
 209 0 l 25
 209 375 l 25
 125 458 l 25
 291 458 l 25
EndSplineSet
EndChar

StartChar: j
Encoding: 106 106 106
Width: 500
VWidth: 0
Flags: W
HStem: -166 83<154.804 263.391> -20 20G<41 125> 502 82<291 375>
VStem: 41 84<-51.7104 0> 291 84<-53.3651 375 502 584>
LayerCount: 2
Fore
SplineSet
291 584 m 1
 375 584 l 1
 375 502 l 1
 291 502 l 1
 291 584 l 1
291 375 m 25
 207 458 l 25
 375 458 l 25
 375 279 375 179 375 0 c 27
 375 -92 301 -166 209 -166 c 27
 117 -166 41 -98 41 0 c 9
 125 0 l 17
 125 -43 163 -83 209 -83 c 27
 255 -83 291 -46 291 0 c 27
 291 146 291 229 291 375 c 25
EndSplineSet
EndChar

StartChar: k
Encoding: 107 107 107
Width: 500
VWidth: 0
Flags: W
HStem: 0 21G<41 125 358.636 459> 647 20G<41 125>
VStem: 41 84<0 210 292 667>
LayerCount: 2
Fore
SplineSet
125 0 m 25
 41 0 l 25
 41 667 l 25
 125 667 l 25
 125 292 l 25
 291 458 l 25
 375 458 l 25
 215 298 l 25
 459 0 l 25
 375 0 l 25
 168 253 l 25
 125 210 l 25
 125 0 l 25
EndSplineSet
EndChar

StartChar: l
Encoding: 108 108 108
Width: 500
VWidth: 0
Flags: W
HStem: 0 21G<304 375> 647 20G<209 291>
VStem: 209 82<101.658 667>
LayerCount: 2
Fore
SplineSet
209 667 m 25
 291 667 l 25
 291 147 l 17
 291 96 332 83 375 83 c 9
 375 0 l 25
 331 0 l 17
 277 0 209 53 209 146 c 9
 209 667 l 25
EndSplineSet
Validated: 1
EndChar

StartChar: m
Encoding: 109 109 109
Width: 500
VWidth: 0
Flags: HW
HStem: 375 72<135.081 203.582 302.56 364.243>
VStem: 41 84<291 372.804 458 458> 209 82<292 365.137> 375 84<292 366.331>
CounterMasks: 1 70
LayerCount: 2
Fore
SplineSet
125 385 m 17
 125 441 159 447 199 447 c 3
 221 447 250 412 250 366 c 1
 250 418 299 447 360 447 c 3
 436 447 459 364 459 292 c 27
 459 178 459 114 459 0 c 25
 375 0 l 25
 375 114 375 178 375 292 c 27
 375 328 370 375 334 375 c 27
 298 375 291 328 291 292 c 0
 291 177 291 114 291 0 c 25
 209 0 l 25
 209 292 l 18
 209 365 201 375 169 375 c 0
 134 375 125 371 125 291 c 10
 125 0 l 25
 41 0 l 25
 41 458 l 25
 125 458 l 25
 125 385 l 17
EndSplineSet
EndChar

StartChar: n
Encoding: 110 110 110
Width: 500
VWidth: 0
Flags: W
HStem: 0 21G<41 125 375 459> 375 83<198.622 336.229>
VStem: 41 84<0 313.242 354 458 458 458> 375 84<0 338.14>
LayerCount: 2
Fore
SplineSet
125 0 m 25
 41 0 l 25
 41 458 l 25
 125 458 l 25
 125 354 l 17
 125 410 215 458 291 458 c 3
 380 458 459 375 459 292 c 10
 459 0 l 25
 375 0 l 25
 375 266 l 18
 375 330 347 375 250 375 c 0
 175 375 125 309 125 229 c 10
 125 0 l 25
EndSplineSet
EndChar

StartChar: o
Encoding: 111 111 111
Width: 500
VWidth: 0
Flags: W
HStem: 0 21G<133.5 368.5> 375 83<152.835 345.786>
VStem: 41 84<110.248 346.763> 375 84<112.225 163 163 346.763>
LayerCount: 2
Fore
SplineSet
209 375 m 27
 163 375 125 337 125 291 c 27
 125 240 125 210 125 159 c 27
 125 115 165 83 209 83 c 27
 241 83 259 83 291 83 c 27
 336 83 375 118 375 163 c 27
 375 213 375 242 375 292 c 27
 375 338 337 375 291 375 c 27
 259 375 241 375 209 375 c 27
41 123 m 27
 41 205 41 252 41 334 c 27
 41 403 99 458 169 458 c 27
 233 458 269 458 333 458 c 27
 402 458 459 403 459 334 c 27
 459 252 459 207 459 125 c 27
 459 56 403 0 334 0 c 27
 269 0 233 0 168 0 c 27
 99 0 41 54 41 123 c 27
EndSplineSet
EndChar

StartChar: p
Encoding: 112 112 112
Width: 500
VWidth: 0
Flags: HW
HStem: 0 21G<221 313> 377 81<185.148 313.582>
VStem: 41 84<-166 83 147.209 311.424 375 458> 375 84<148.93 310.939>
LayerCount: 2
Fore
SplineSet
125 229 m 0
 125 148 181 83 250 83 c 0
 319 83 375 148 375 229 c 0
 375 310 319 377 250 377 c 0
 181 377 125 310 125 229 c 0
125 458 m 25
 125 377 l 17
 151 421 191 458 250 458 c 27
 366 458 459 364 459 248 c 27
 459 122 376 0 250 0 c 27
 192 0 125 34 125 83 c 9
 125 -166 l 25
 41 -166 l 25
 41 458 l 25
 125 458 l 25
EndSplineSet
EndChar

StartChar: q
Encoding: 113 113 113
Width: 500
VWidth: 0
Flags: HW
HStem: 0 21G<187 279> 377 81<186.418 314.852>
VStem: 41 84<148.93 310.939> 375 84<-166 83 147.209 311.424 375 458>
LayerCount: 2
Fore
SplineSet
375 229 m 0
 375 310 319 377 250 377 c 0
 181 377 125 310 125 229 c 0
 125 148 181 83 250 83 c 0
 319 83 375 148 375 229 c 0
375 458 m 25
 459 458 l 25
 459 -166 l 25
 375 -166 l 25
 375 83 l 17
 375 34 308 0 250 0 c 27
 124 0 41 122 41 248 c 27
 41 364 134 458 250 458 c 27
 309 458 349 421 375 377 c 9
 375 458 l 25
EndSplineSet
EndChar

StartChar: r
Encoding: 114 114 114
Width: 500
VWidth: 0
Flags: W
HStem: 0 21G<41 125> 375 83<188.484 338.386>
VStem: 41 84<0 308.507 375 458 458 458>
LayerCount: 2
Fore
SplineSet
125 0 m 25
 41 0 l 25
 41 458 l 25
 125 458 l 25
 125 375 l 17
 130 416 191 458 250 458 c 27
 345 458 441 375 459 334 c 9
 375 334 l 17
 346 361 301 375 250 375 c 27
 177 375 125 295 125 235 c 10
 125 0 l 25
EndSplineSet
EndChar

StartChar: s
Encoding: 115 115 115
Width: 500
VWidth: 0
Flags: HW
HStem: 0 68<138.86 350.071> 199 63<142.246 349.746> 391 67<155.767 368.039>
VStem: 40 85<279.6 362.184> 375 84<91.7211 174.844>
LayerCount: 2
Fore
SplineSet
250 458 m 27
 334 458 400 431 459 406 c 1
 459 334 l 1
 389 360 334 391 250 391 c 27
 194 391 125 375 125 319 c 27
 125 265 196 262 250 262 c 27
 346 262 459 229 459 133 c 27
 459 36 347 0 250 0 c 27
 165 0 99 35 40 61 c 9
 40 131 l 17
 107 104 165 68 250 68 c 27
 305 68 375 79 375 134 c 27
 375 189 305 199 250 199 c 27
 156 199 40 225 40 319 c 27
 40 417 152 458 250 458 c 27
EndSplineSet
EndChar

StartChar: t
Encoding: 116 116 116
Width: 500
VWidth: 0
Flags: W
HStem: 0 21G<239 343.5> 376 82<41 125 209 333>
VStem: 125 84<112.187 376 458 584> 375 84<116.507 210>
LayerCount: 2
Fore
SplineSet
125 376 m 25
 41 376 l 25
 41 458 l 25
 125 458 l 25
 125 584 l 25
 209 584 l 25
 209 458 l 25
 333 458 l 25
 333 376 l 25
 209 376 l 25
 209 210 l 18
 209 130 232 82 291 82 c 27
 351 82 375 137 375 210 c 9
 459 210 l 17
 459 106 396 0 291 0 c 27
 187 0 125 89 125 210 c 10
 125 376 l 25
EndSplineSet
EndChar

StartChar: u
Encoding: 117 117 117
Width: 500
VWidth: 0
Flags: W
HStem: -0 21G<145 247 375 459>
VStem: 41 84<121.557 458> 375 84<0 104 144.758 229 229 458>
LayerCount: 2
Fore
SplineSet
375 458 m 25
 459 458 l 25
 459 -0 l 25
 375 -0 l 25
 375 104 l 17
 375 48 285 -0 209 -0 c 3
 81 -0 41 52 41 166 c 10
 41 458 l 25
 125 458 l 25
 125 192 l 18
 125 128 153 83 250 83 c 0
 325 83 375 149 375 229 c 10
 375 458 l 25
EndSplineSet
EndChar

StartChar: v
Encoding: 118 118 118
Width: 500
VWidth: 0
Flags: W
HStem: 0 21G<201.664 298.336>
LayerCount: 2
Fore
SplineSet
41 458 m 25
 125 458 l 25
 250 83 l 25
 375 458 l 25
 459 458 l 25
 291 0 l 25
 209 0 l 25
 41 458 l 25
EndSplineSet
EndChar

StartChar: w
Encoding: 119 119 119
Width: 500
VWidth: 0
Flags: W
HStem: 0 21G<117 216.321 283.679 383>
VStem: 41 84<210 458> 209 82<210 375> 375 84<210 458>
CounterMasks: 1 70
LayerCount: 2
Fore
SplineSet
41 458 m 25
 125 458 l 25
 125 210 l 25
 166 83 l 25
 209 210 l 25
 209 375 l 25
 291 375 l 25
 291 210 l 25
 333 83 l 25
 375 210 l 25
 375 458 l 25
 459 458 l 25
 459 210 l 25
 375 0 l 25
 291 0 l 25
 250 112 l 25
 209 0 l 25
 125 0 l 25
 41 210 l 25
 41 458 l 25
EndSplineSet
EndChar

StartChar: x
Encoding: 120 120 120
Width: 500
VWidth: 0
Flags: W
HStem: 0 21G<41 140.244 359.756 459>
LayerCount: 2
Fore
SplineSet
41 458 m 25
 125 458 l 25
 250 292 l 25
 375 458 l 25
 459 458 l 25
 291 229 l 25
 459 0 l 25
 375 0 l 25
 250 164 l 25
 125 0 l 25
 41 0 l 25
 209 229 l 25
 41 458 l 25
EndSplineSet
EndChar

StartChar: y
Encoding: 121 121 121
Width: 500
VWidth: 0
Flags: W
HStem: -166 83<151.784 336.406> 42 83<187.414 312.464>
VStem: 41 84<-58.383 -20 198.707 458> 375 84<-45.5975 130 197.337 458>
LayerCount: 2
Fore
SplineSet
41 458 m 25
 125 458 l 25
 125 292 l 18
 125 212 169 125 250 125 c 24
 331 125 375 212 375 292 c 10
 375 458 l 25
 459 458 l 25
 459 0 l 18
 459 -104 355 -166 251 -166 c 27
 151 -166 41 -118 41 -20 c 9
 125 -20 l 17
 125 -69 195 -83 249 -83 c 19
 314 -83 375 -54 375 0 c 9
 375 130 l 17
 363 69 310 42 250 42 c 27
 145 42 41 130 41 210 c 10
 41 458 l 25
EndSplineSet
EndChar

StartChar: z
Encoding: 122 122 122
Width: 500
VWidth: 0
Flags: W
HStem: 0 21G<41 459> 375 83<41 375>
LayerCount: 2
Fore
SplineSet
41 375 m 25
 41 458 l 25
 459 458 l 25
 459 375 l 25
 125 83 l 25
 459 83 l 25
 459 0 l 25
 41 0 l 25
 41 83 l 25
 375 375 l 25
 41 375 l 25
EndSplineSet
EndChar

StartChar: braceleft
Encoding: 123 123 123
Width: 500
VWidth: 0
Flags: HW
HStem: -83 83<321.635 459> 292 83<41 122.053> 667 83<321.635 459>
VStem: 41 84<312 362> 209 82<29.6349 211.51 443.831 637.365>
CounterMasks: 1 e0
LayerCount: 2
Fore
SplineSet
459 750 m 25
 459 667 l 25
 426 667 408 667 375 667 c 27
 329 667 291 630 291 584 c 27
 291 549 291 530 291 495 c 17
 291 426 209 372 125 362 c 9
 125 312 l 17
 209 312 291 238 291 177 c 3
 291 140 291 120 291 83 c 27
 291 37 329 0 375 0 c 27
 408 0 426 0 459 0 c 25
 459 -83 l 25
 426 -83 408 -83 375 -83 c 27
 283 -83 209 -9 209 83 c 27
 209 188 187 292 41 292 c 9
 41 375 l 17
 204 375 209 479 209 584 c 27
 209 676 283 750 375 750 c 27
 408 750 426 750 459 750 c 25
EndSplineSet
EndChar

StartChar: bar
Encoding: 124 124 124
Width: 500
VWidth: 0
Flags: W
VStem: 209 82<-83 584>
LayerCount: 2
Fore
SplineSet
209 584 m 1
 291 584 l 1
 291 -83 l 1
 209 -83 l 1
 209 584 l 1
EndSplineSet
EndChar

StartChar: asciitilde
Encoding: 126 126 126
Width: 500
VWidth: 0
Flags: W
HStem: 210 82<302.582 385.506> 375 83<114.236 197.589>
VStem: 41 50<334 350.924>
LayerCount: 2
Fore
SplineSet
91 292 m 9
 41 334 l 17
 41 394 98 458 167 458 c 27
 235 458 274 389 291 334 c 0
 298 312 318 292 344 292 c 27
 387 292 409 347 416 375 c 9
 459 334 l 17
 459 257 402 210 333 210 c 27
 264 210 233 267 209 335 c 0
 201 356 182 375 156 375 c 27
 115 375 96 334 91 292 c 9
EndSplineSet
EndChar

StartChar: sterling
Encoding: 163 163 163
Width: 500
VWidth: 0
Flags: W
HStem: 0 21G<41 430.157> 292 83<81 125 209 330> 584 83<241.794 346.026>
VStem: 125 84<83 292 375 547.56>
LayerCount: 2
Fore
SplineSet
209 83 m 1
 459 83 l 1
 421 0 l 1
 41 0 l 1
 84 83 l 1
 125 83 l 9
 125 292 l 25
 41 292 l 25
 81 375 l 25
 125 375 l 25
 125 407 125 426 125 458 c 27
 125 562 187 667 291 667 c 27
 373 667 437 609 459 542 c 9
 375 524 l 17
 361 555 331 584 291 584 c 27
 232 584 209 517 209 458 c 27
 209 426 209 407 209 375 c 25
 375 375 l 25
 330 292 l 25
 209 292 l 25
 209 83 l 1
EndSplineSet
EndChar

StartChar: currency
Encoding: 164 164 164
Width: 500
VWidth: 0
Flags: W
HStem: 318 83<207.512 292.383> 515 83<207.617 292.383> 647 20G<86 124.824 375.176 414>
VStem: 112 83<412.99 502.648> 305 83<413.352 502.648>
LayerCount: 2
Fore
SplineSet
195 458 m 0
 195 427 220 401 250 401 c 0
 280 401 305 427 305 458 c 0
 305 489 280 515 250 515 c 0
 220 515 195 489 195 458 c 0
314 334 m 1
 295 324 273 318 250 318 c 0
 226 318 204 325 184 335 c 1
 100 256 l 1
 41 315 l 1
 123 403 l 1
 116 420 112 438 112 458 c 0
 112 481 118 502 127 521 c 1
 41 602 l 1
 106 667 l 1
 186 582 l 1
 205 592 227 598 250 598 c 0
 273 598 295 592 314 582 c 1
 394 667 l 1
 459 602 l 1
 373 521 l 1
 382 502 388 481 388 458 c 0
 388 435 382 414 373 395 c 1
 459 314 l 1
 394 249 l 1
 314 334 l 1
EndSplineSet
EndChar

StartChar: yen
Encoding: 165 165 165
Width: 500
VWidth: 0
Flags: W
HStem: 0 21G<209 291> 128 82<81 209 291 419> 292 83<81 172 328 419> 647 20G<41 133.562 366.438 459>
VStem: 209 82<0 128 210 292>
LayerCount: 2
Fore
SplineSet
41 667 m 1
 125 667 l 1
 250 375 l 1
 375 667 l 1
 459 667 l 1
 328 375 l 1
 419 375 l 1
 419 292 l 1
 291 292 l 1
 291 210 l 1
 419 210 l 1
 419 128 l 1
 291 128 l 1
 291 0 l 1
 209 0 l 1
 209 128 l 1
 81 128 l 1
 81 210 l 1
 209 210 l 1
 209 292 l 1
 81 292 l 1
 81 375 l 1
 172 375 l 1
 41 667 l 1
EndSplineSet
EndChar

StartChar: brokenbar
Encoding: 166 166 166
Width: 500
VWidth: 0
Flags: W
VStem: 209 82<-83 209 292 584>
LayerCount: 2
Fore
SplineSet
209 209 m 1
 291 209 l 1
 291 -83 l 1
 209 -83 l 1
 209 209 l 1
209 584 m 1
 291 584 l 1
 291 292 l 1
 209 292 l 1
 209 584 l 1
EndSplineSet
EndChar

StartChar: section
Encoding: 167 167 167
Width: 500
VWidth: 0
Flags: W
HStem: 0 21G<41 459> 63 20G<41 459>
LayerCount: 2
Fore
SplineSet
41 83 m 1
 459 83 l 1
 459 0 l 1
 41 0 l 1
 41 83 l 1
EndSplineSet
Validated: 1
EndChar

StartChar: dieresis
Encoding: 168 168 168
Width: 500
VWidth: 0
Flags: HW
HStem: 577 100<122.417 211.583 291.438 374.562>
VStem: 114 106<585.248 668.752> 283 100<585.438 668.562>
LayerCount: 2
Fore
SplineSet
283 627 m 0
 283 655 305 677 333 677 c 0
 361 677 383 655 383 627 c 0
 383 599 361 577 333 577 c 0
 305 577 283 599 283 627 c 0
114 627 m 0
 114 656 138 679 167 679 c 0
 196 679 220 656 220 627 c 0
 220 598 196 577 167 577 c 0
 138 577 114 598 114 627 c 0
EndSplineSet
EndChar

StartChar: copyright
Encoding: 169 169 169
Width: 500
VWidth: 0
Flags: HW
HStem: 42 83<141.031 358.969> 210 71<258.703 328> 390 68<260.472 329> 543 83<138.648 361.352>
VStem: 41 84<141.607 530.429> 168 76<295.419 372.038> 375 84<141.607 530.429>
LayerCount: 2
Fore
SplineSet
329 458 m 9
 329 390 l 17
 291 390 244 374 244 334 c 27
 244 295 282 281 328 281 c 9
 328 210 l 17
 223 210 168 255 168 334 c 27
 168 413 243 458 329 458 c 9
291 543 m 10
 209 543 l 18
 205 543 200.96 543.05 196.928 543.05 c 0
 160.64 543.05 125 539 125 458 c 10
 125 214 l 18
 125 125.957 167.108 125 206.386 125 c 0
 209 125 l 10
 291 125 l 18
 293.614 125 l 0
 332.892 125 375 125.957 375 214 c 10
 375 458 l 18
 375 539 339.36 543.05 303.072 543.05 c 0
 299.04 543.05 295 543 291 543 c 10
41 214 m 10
 41 458 l 18
 41 548 85 626 125 626 c 10
 375 626 l 18
 415 626 459 548 459 458 c 10
 459 214 l 18
 459 124 415 42 375 42 c 10
 125 42 l 18
 85 42 41 124 41 214 c 10
EndSplineSet
EndChar

StartChar: ordfeminine
Encoding: 170 170 170
Width: 500
VWidth: 0
Flags: W
HStem: 210 82<125 459> 375 83<216.459 356.699> 541 67<220.834 370.535> 667 83<209 358.913>
VStem: 142 67<469.259 525.616> 375 84<375 417 462.235 534.731 581 650.285>
LayerCount: 2
Fore
SplineSet
125 292 m 1
 459 292 l 1
 459 210 l 1
 125 210 l 1
 125 292 l 1
209 497 m 0
 209 475 239 458 291 458 c 0
 360 458 375 461 375 497 c 0
 375 533 360 541 291 541 c 0
 245 541 209 521 209 497 c 0
209 750 m 1
 359 750 459 735 459 667 c 9
 459 375 l 25
 375 375 l 25
 375 417 l 17
 364 395 328 375 291 375 c 27
 216 375 142 421 142 496 c 27
 142 569 218 608 291 608 c 3
 319 608 365 598 375 581 c 9
 375 622 l 17
 375 658 317 667 209 667 c 9
 209 667 209 720 209 750 c 1
EndSplineSet
EndChar

StartChar: guillemotleft
Encoding: 171 171 171
Width: 500
VWidth: 0
Flags: W
HStem: 0 21G<194.328 291 362.328 459>
LayerCount: 2
Fore
SplineSet
209 229 m 25
 377 458 l 25
 459 458 l 25
 293 229 l 25
 459 0 l 25
 377 0 l 25
 209 229 l 25
41 229 m 25
 209 458 l 25
 291 458 l 25
 125 229 l 25
 291 0 l 25
 209 0 l 25
 41 229 l 25
EndSplineSet
Validated: 1
EndChar

StartChar: logicalnot
Encoding: 172 172 172
Width: 500
VWidth: 0
Flags: W
HStem: 210 165<375 459> 292 83<41 375>
VStem: 375 84<210 292>
LayerCount: 2
Fore
SplineSet
41 292 m 25x60
 41 375 l 25x60
 459 375 l 25
 459 210 l 25
 375 210 l 25xa0
 375 292 l 25
 41 292 l 25x60
EndSplineSet
EndChar

StartChar: registered
Encoding: 174 174 174
Width: 500
VWidth: 0
Flags: HW
HStem: 42 83<141.031 358.969> 375 83<250 334> 543 83<138.648 361.352>
VStem: 41 84<141.607 530.429> 165 85<229 375 375 375> 375 84<141.607 530.429>
LayerCount: 2
Fore
SplineSet
250 229 m 25
 165 229 l 25
 165 375 l 17
 165 424 200 458 250 458 c 9
 334 458 l 25
 334 375 l 25
 250 375 l 25
 250 229 l 25
291 543 m 10
 209 543 l 18
 205 543 200.96 543.05 196.928 543.05 c 0
 160.64 543.05 125 539 125 458 c 10
 125 214 l 18
 125 125.957 167.108 125 206.386 125 c 0
 209 125 l 10
 291 125 l 18
 293.614 125 l 0
 332.892 125 375 125.957 375 214 c 10
 375 458 l 18
 375 539 339.36 543.05 303.072 543.05 c 0
 299.04 543.05 295 543 291 543 c 10
41 214 m 10
 41 458 l 18
 41 548 85 626 125 626 c 10
 375 626 l 18
 415 626 459 548 459 458 c 10
 459 214 l 18
 459 124 415 42 375 42 c 10
 125 42 l 18
 85 42 41 124 41 214 c 10
EndSplineSet
EndChar

StartChar: macron
Encoding: 175 175 175
Width: 500
VWidth: 0
Flags: W
HStem: 584 83<125 375>
VStem: 125 250<584 667>
LayerCount: 2
Fore
SplineSet
125 667 m 1
 375 667 l 1
 375 584 l 1
 125 584 l 1
 125 667 l 1
EndSplineSet
EndChar

StartChar: degree
Encoding: 176 176 176
Width: 500
VWidth: 0
Flags: W
HStem: 375 83<203.728 296.067> 584 83<203.728 296.519>
VStem: 107 83<471.214 569.297> 310 84<473.088 571.178>
LayerCount: 2
Fore
SplineSet
190 521 m 0
 190 486 213 458 250 458 c 0
 287 458 310 487 310 522 c 0
 310 557 287 584 250 584 c 0
 213 584 190 556 190 521 c 0
107 521 m 0
 107 602 171 667 250 667 c 0
 330 667 394 602 394 521 c 0
 394 441 330 375 250 375 c 0
 171 375 107 441 107 521 c 0
EndSplineSet
EndChar

StartChar: plusminus
Encoding: 177 177 177
Width: 500
VWidth: 0
Flags: W
HStem: 127 83<41 209 291 459> 334 88<41 209 291 459>
VStem: 209 82<210 334 422 584>
LayerCount: 2
Fore
SplineSet
41 334 m 1
 41 422 l 1
 209 422 l 1
 209 584 l 1
 291 584 l 1
 291 422 l 1
 459 422 l 1
 459 334 l 1
 291 334 l 1
 291 210 l 1
 459 210 l 1
 459 127 l 1
 41 127 l 1
 41 210 l 1
 209 210 l 1
 209 334 l 1
 41 334 l 1
EndSplineSet
EndChar

StartChar: uni00B2
Encoding: 178 178 178
Width: 500
VWidth: 0
Flags: W
HStem: 375 83<41 108.685 176 334> 667 83<140.393 226.931>
VStem: 41 84<584 652.783> 250 83<543.538 645.504>
LayerCount: 2
Fore
SplineSet
334 458 m 25
 334 375 l 25
 41 375 l 17
 41 388 41 442 41 458 c 1
 146 487 250 530 250 584 c 11
 250 625 223 667 187 667 c 3
 131 667 125 615 125 584 c 9
 41 584 l 17
 41 696 93 750 190 750 c 3
 291 750 333 698 333 584 c 3
 333 505 201 466 176 458 c 9
 334 458 l 25
EndSplineSet
EndChar

StartChar: uni00B3
Encoding: 179 179 179
Width: 500
VWidth: 0
Flags: W
HStem: 375 83<41 200.208> 667 83<41 207>
VStem: 207 84<463.298 529.283>
LayerCount: 2
Fore
SplineSet
41 667 m 25
 41 750 l 25
 291 750 l 25
 291 667 l 25
 207 584 l 17
 241 584 291 547 291 501 c 27
 291 432 235 375 166 375 c 27
 117 375 90 375 41 375 c 25
 41 458 l 25
 90 458 117 458 166 458 c 27
 188 458 207 476 207 498 c 27
 207 534 160 539 125 539 c 9
 125 584 l 25
 207 667 l 25
 41 667 l 25
EndSplineSet
EndChar

StartChar: acute
Encoding: 180 180 180
Width: 500
VWidth: 0
Flags: HW
HStem: 647 20G<209 359.115>
LayerCount: 2
Fore
SplineSet
375 667 m 17
 209 458 l 1
 125 458 l 1
 209 566 l 1
 209 667 l 9
 375 667 l 17
EndSplineSet
EndChar

StartChar: uni00B5
Encoding: 181 181 181
Width: 500
VWidth: 0
Flags: HW
HStem: 0 21G<188 235.5 427.5 459>
VStem: 41 84<-126 66 116.305 458> 291 84<111.489 210 210 457>
LayerCount: 2
Fore
SplineSet
125 -126 m 25
 41 -166 l 25
 41 458 l 25
 125 458 l 25
 125 361 125 307 125 210 c 0
 125 135 150 83 209 83 c 27
 268 83 291 127 291 210 c 3
 291 307 291 361 291 458 c 25
 375 458 l 25
 375 336 375 267 375 145 c 27
 375 104 395 83 459 83 c 9
 459 0 l 17
 396 0 331 16 318 83 c 1
 306 40 262 0 209 0 c 27
 167 0 137 34 125 66 c 9
 125 -126 l 25
EndSplineSet
EndChar

StartChar: paragraph
Encoding: 182 182 182
Width: 500
VWidth: 0
Flags: W
HStem: 0 21G<209 459> 292 83<154.017 209> 584 83<153.581 209 291 375>
VStem: 41 84<404.343 554.471> 209 82<83 292 375 584> 375 84<83 584>
CounterMasks: 1 1c
LayerCount: 2
Fore
SplineSet
209 375 m 9
 209 584 l 17
 147 584 125 532 125 480 c 27
 125 428 148 375 209 375 c 9
291 584 m 1
 291 83 l 1
 375 83 l 1
 375 584 l 1
 291 584 l 1
209 667 m 27
 306 667 361 667 459 667 c 25
 459 0 l 25
 375 0 l 25
 209 0 l 25
 209 292 l 17
 111 292 41 381 41 479 c 27
 41 577 111 667 209 667 c 27
EndSplineSet
EndChar

StartChar: periodcentered
Encoding: 183 183 183
Width: 500
VWidth: 0
Flags: W
HStem: 271 127<187 314>
VStem: 187 127<271 398>
LayerCount: 2
Fore
SplineSet
187 271 m 1
 187 398 l 1
 314 398 l 1
 314 271 l 1
 187 271 l 1
EndSplineSet
Validated: 1
EndChar

StartChar: cedilla
Encoding: 184 184 184
Width: 500
VWidth: 0
Flags: W
HStem: -166 83<209 287.114> 63 20G<209 291>
VStem: 209 82<5.73692 83> 291 84<-104 -10.6091>
LayerCount: 2
Fore
SplineSet
209 83 m 9
 291 83 l 17
 291 37 295 0 333 0 c 0
 357 0 375 -40 375 -83 c 1
 375 -125 337 -166 250 -166 c 1
 190 -166 143 -145 125 -122 c 9
 209 -83 l 17
 264 -83 291 -73 291 -47 c 3
 291 -23 272 0 250 0 c 3
 218 0 209 31 209 83 c 9
EndSplineSet
EndChar

StartChar: uni00B9
Encoding: 185 185 185
Width: 500
VWidth: 0
Flags: W
VStem: 209 82<375 667>
LayerCount: 2
Fore
SplineSet
41 584 m 25
 209 750 l 25
 291 750 l 25
 291 375 l 25
 209 375 l 25
 209 667 l 25
 125 584 l 25
 41 584 l 25
EndSplineSet
EndChar

StartChar: ordmasculine
Encoding: 186 186 186
Width: 500
VWidth: 0
Flags: W
HStem: 210 82<125 459> 375 97<240.964 341.85> 618 96<241.152 342.41>
VStem: 125 96<490.579 598.999> 361 98<490.805 599.401>
LayerCount: 2
Fore
SplineSet
221 545 m 0
 221 504 248 472 291 472 c 0
 334 472 361 505 361 546 c 0
 361 587 334 618 291 618 c 0
 249 618 221 585 221 545 c 0
125 545 m 0
 125 638 199 714 292 714 c 0
 384 714 459 638 459 545 c 0
 459 451 384 375 292 375 c 0
 199 375 125 451 125 545 c 0
125 292 m 1
 459 292 l 1
 459 210 l 1
 125 210 l 1
 125 292 l 1
EndSplineSet
EndChar

StartChar: guillemotright
Encoding: 187 187 187
Width: 500
VWidth: 0
Flags: W
HStem: 0 21G<41 137.672 209 305.672>
LayerCount: 2
Fore
SplineSet
291 229 m 25
 123 0 l 25
 41 0 l 25
 207 229 l 25
 41 458 l 25
 123 458 l 25
 291 229 l 25
459 229 m 25
 291 0 l 25
 209 0 l 25
 375 229 l 25
 209 458 l 25
 291 458 l 25
 459 229 l 25
EndSplineSet
Validated: 1
EndChar

StartChar: Agrave
Encoding: 192 192 192
Width: 500
VWidth: 0
Flags: W
HStem: 0 21G<41 125 375 459> 167 82<125 375> 418 83<167.906 331.734>
VStem: 41 84<0 167 249 374.625> 375 84<0 167 249 375.886>
LayerCount: 2
Fore
SplineSet
125 750 m 25
 250 750 l 25
 291 584 l 25
 209 584 l 25
 125 750 l 25
375 249 m 9
 375 292 l 18
 375 362 349 418 250 418 c 3
 152 418 125 362 125 292 c 10
 125 249 l 17
 375 249 l 9
41 0 m 25
 41 292 l 18
 41 392 97 501 250 501 c 3
 400 501 459 392 459 292 c 10
 459 0 l 25
 375 0 l 25
 375 167 l 17
 125 167 l 9
 125 0 l 25
 41 0 l 25
EndSplineSet
EndChar

StartChar: Aacute
Encoding: 193 193 193
Width: 500
VWidth: 0
Flags: HW
HStem: 0 21G<41 125 375 459> 172 82<125 375> 418 83<167.906 331.734>
VStem: 41 84<0 172 254 374.625> 375 84<0 172 254 375.886>
LayerCount: 2
Fore
SplineSet
375 750 m 25
 291 584 l 25
 209 584 l 25
 250 750 l 25
 375 750 l 25
375 254 m 9
 375 292 l 18
 375 362 349 418 250 418 c 3
 152 418 125 362 125 292 c 10
 125 254 l 17
 375 254 l 9
41 0 m 25
 41 292 l 18
 41 392 97 501 250 501 c 3
 400 501 459 392 459 292 c 10
 459 0 l 25
 375 0 l 25
 375 172 l 17
 125 172 l 9
 125 0 l 25
 41 0 l 25
EndSplineSet
EndChar

StartChar: Acircumflex
Encoding: 194 194 194
Width: 500
VWidth: 0
Flags: W
HStem: 0 21G<41 125 375 459> 167 82<125 375> 418 83<167.906 331.734>
VStem: 41 84<0 167 249 374.625> 375 84<0 167 249 375.886>
LayerCount: 2
Fore
SplineSet
125 584 m 25
 209 750 l 25
 291 750 l 25
 375 584 l 25
 291 584 l 25
 250 667 l 25
 209 584 l 25
 125 584 l 25
375 249 m 9
 375 292 l 18
 375 362 349 418 250 418 c 3
 152 418 125 362 125 292 c 10
 125 249 l 17
 375 249 l 9
41 0 m 25
 41 292 l 18
 41 392 97 501 250 501 c 3
 400 501 459 392 459 292 c 10
 459 0 l 25
 375 0 l 25
 375 167 l 17
 125 167 l 9
 125 0 l 25
 41 0 l 25
EndSplineSet
EndChar

StartChar: Atilde
Encoding: 195 195 195
Width: 500
VWidth: 0
Flags: W
HStem: 0 21G<41 125 375 459> 167 82<125 375> 418 83<167.906 331.734> 529 73<300.234 387.515> 676 74<111.814 200.264>
VStem: 41 84<0 167 249 374.625> 41 50<640 654.961> 375 84<0 167 249 375.886>
LayerCount: 2
Fore
SplineSet
91 602 m 9xfb
 41 640 l 17
 41 693 98 750 167 750 c 27
 235 750 274 689 291 640 c 0
 298 620 318 602 344 602 c 27
 387 602 409 651 416 676 c 9
 459 640 l 17
 459 571 402 529 333 529 c 27
 264 529 233 580 209 641 c 0
 201 660 182 676 156 676 c 27
 115 676 96 640 91 602 c 9xfb
375 249 m 9
 375 292 l 18
 375 362 349 418 250 418 c 3
 152 418 125 362 125 292 c 10
 125 249 l 17xfd
 375 249 l 9
41 0 m 25
 41 292 l 18
 41 392 97 501 250 501 c 3
 400 501 459 392 459 292 c 10
 459 0 l 25
 375 0 l 25
 375 167 l 17
 125 167 l 9
 125 0 l 25
 41 0 l 25
EndSplineSet
EndChar

StartChar: Adieresis
Encoding: 196 196 196
Width: 500
VWidth: 0
Flags: HW
HStem: 0 21G<41 125 375 459> 167 82<125 375> 418 83<167.906 331.734> 577 100<122.417 211.583 291.438 374.562>
VStem: 41 84<0 167 249 374.625> 114 106<585.248 668.752> 283 100<585.438 668.562> 375 84<0 167 249 375.886>
LayerCount: 2
Fore
SplineSet
283 627 m 0xf2
 283 655 305 677 333 677 c 0
 361 677 383 655 383 627 c 0
 383 599 361 577 333 577 c 0
 305 577 283 599 283 627 c 0xf2
114 627 m 0xf4
 114 656 138 679 167 679 c 0
 196 679 220 656 220 627 c 0
 220 598 196 577 167 577 c 0
 138 577 114 598 114 627 c 0xf4
375 249 m 9xf9
 375 292 l 18
 375 362 349 418 250 418 c 3
 152 418 125 362 125 292 c 10
 125 249 l 17
 375 249 l 9xf9
41 0 m 25
 41 292 l 18
 41 392 97 501 250 501 c 3
 400 501 459 392 459 292 c 10
 459 0 l 25
 375 0 l 25
 375 167 l 17
 125 167 l 9
 125 0 l 25
 41 0 l 25
EndSplineSet
EndChar

StartChar: Aring
Encoding: 197 197 197
Width: 500
VWidth: 0
Flags: W
HStem: 0 21G<41 125 375 459> 167 82<125 375> 418 83<167.906 331.734> 526 64<211.217 288.375> 686 64<211.341 288.659>
VStem: 41 84<0 167 249 374.625> 140 64<596.563 679.437> 296 64<596.689 679.563> 375 84<0 167 249 375.886>
LayerCount: 2
Fore
SplineSet
204 638 m 0
 204 611 221 590 250 590 c 0
 278 590 296 612 296 639 c 0
 296 666 278 686 250 686 c 0
 222 686 204 665 204 638 c 0
140 638 m 0
 140 700 189 750 250 750 c 0
 311 750 360 700 360 638 c 0
 360 576 311 526 250 526 c 0
 189 526 140 576 140 638 c 0
375 249 m 9
 375 292 l 18
 375 362 349 418 250 418 c 3
 152 418 125 362 125 292 c 10
 125 249 l 17
 375 249 l 9
41 0 m 25
 41 292 l 18
 41 392 97 501 250 501 c 3
 400 501 459 392 459 292 c 10
 459 0 l 25
 375 0 l 25
 375 167 l 17
 125 167 l 9
 125 0 l 25
 41 0 l 25
EndSplineSet
EndChar

StartChar: AE
Encoding: 198 198 198
Width: 500
VWidth: 0
Flags: W
HStem: 0 21G<41 129.863 250 459> 292 83<213 250 332 459> 584 83<332 459>
VStem: 250 82<83 292 375 584>
LayerCount: 2
Fore
SplineSet
250 527 m 25
 213 375 l 25
 250 375 l 25
 250 527 l 25
125 0 m 1
 41 0 l 9
 209 667 l 25
 459 667 l 25
 459 584 l 25
 332 584 l 25
 332 375 l 25
 459 375 l 25
 459 292 l 25
 332 292 l 25
 332 83 l 25
 459 83 l 25
 459 0 l 17
 250 0 l 1
 250 292 l 25
 196 292 l 25
 125 0 l 1
EndSplineSet
EndChar

StartChar: Ccedilla
Encoding: 199 199 199
Width: 500
VWidth: 0
Flags: HW
HStem: -48 131<219.693 281.728> 610 71<186.318 311.036>
VStem: 29 81<185.997 493.754> 291 84<-131.331 -55.6502>
LayerCount: 2
Fore
SplineSet
29 334 m 0
 29 494 90 681 250 681 c 0
 350 681 459 534 459 534 c 1
 379 534 l 1
 379 534 308 610 250 610 c 0
 129 610 110 451 110 334 c 0
 110 222 137 83 249 83 c 0
 358 83 380 124 380 124 c 1
 463 124 l 1
 463 124 376 33 291 7 c 1
 294 -22 305 -42 333 -42 c 0
 357 -42 375 -76 375 -119 c 0
 375 -161 337 -208 250 -208 c 0
 190 -208 143 -189 125 -166 c 1
 209 -125 l 1
 221.424 -134.394 233.848 -138.186 245.131 -138.186 c 0
 271.083 -138.186 291 -118.121 291 -100 c 0
 291 -76 272 -48 250 -48 c 0
 226 -48 215 -28 211 4 c 1
 83 31 29 191 29 334 c 0
EndSplineSet
EndChar

StartChar: Egrave
Encoding: 200 200 200
Width: 500
VWidth: 0
Flags: W
HStem: 0 21G<41 459> 210 82<125 375> 417 81<125 459>
VStem: 41 84<83 210 292 417>
LayerCount: 2
Fore
SplineSet
125 750 m 25
 250 750 l 25
 291 584 l 25
 209 584 l 25
 125 750 l 25
41 498 m 25
 459 498 l 25
 459 417 l 25
 125 417 l 25
 125 292 l 25
 375 292 l 25
 375 210 l 25
 125 210 l 25
 125 83 l 25
 459 83 l 25
 459 0 l 25
 41 0 l 25
 41 498 l 25
EndSplineSet
EndChar

StartChar: Eacute
Encoding: 201 201 201
Width: 500
VWidth: 0
Flags: HW
HStem: 0 21G<41 459> 210 82<125 375> 417 81<125 459>
VStem: 41 84<83 210 292 417>
LayerCount: 2
Fore
SplineSet
375 750 m 25
 291 584 l 25
 209 584 l 25
 250 750 l 25
 375 750 l 25
41 498 m 25
 459 498 l 25
 459 417 l 25
 125 417 l 25
 125 292 l 25
 375 292 l 25
 375 210 l 25
 125 210 l 25
 125 83 l 25
 459 83 l 25
 459 0 l 25
 41 0 l 25
 41 498 l 25
EndSplineSet
EndChar

StartChar: Ecircumflex
Encoding: 202 202 202
Width: 500
VWidth: 0
Flags: W
HStem: 0 21G<41 459> 210 82<125 375> 417 81<125 459>
VStem: 41 84<83 210 292 417>
LayerCount: 2
Fore
SplineSet
41 498 m 25
 459 498 l 25
 459 417 l 25
 125 417 l 25
 125 292 l 25
 375 292 l 25
 375 210 l 25
 125 210 l 25
 125 83 l 25
 459 83 l 25
 459 0 l 25
 41 0 l 25
 41 498 l 25
125 584 m 25
 209 750 l 25
 291 750 l 25
 375 584 l 25
 291 584 l 25
 250 667 l 25
 209 584 l 25
 125 584 l 25
EndSplineSet
EndChar

StartChar: Edieresis
Encoding: 203 203 203
Width: 500
VWidth: 0
Flags: HW
HStem: 0 21G<41 459> 210 82<125 375> 417 81<125 459> 577 100<122.417 211.583 291.438 374.562>
VStem: 41 84<83 210 292 417> 114 106<585.248 668.752> 283 100<585.438 668.562>
LayerCount: 2
Fore
SplineSet
283 627 m 0xf2
 283 655 305 677 333 677 c 0
 361 677 383 655 383 627 c 0
 383 599 361 577 333 577 c 0
 305 577 283 599 283 627 c 0xf2
114 627 m 0xf6
 114 656 138 679 167 679 c 0
 196 679 220 656 220 627 c 0
 220 598 196 577 167 577 c 0
 138 577 114 598 114 627 c 0xf6
41 498 m 25xfa
 459 498 l 25
 459 417 l 25
 125 417 l 25
 125 292 l 25
 375 292 l 25
 375 210 l 25
 125 210 l 25
 125 83 l 25
 459 83 l 25
 459 0 l 25
 41 0 l 25
 41 498 l 25xfa
EndSplineSet
EndChar

StartChar: Igrave
Encoding: 204 204 204
Width: 500
VWidth: 0
Flags: W
HStem: 0 21G<125 375> 416 83<125 209 291 375>
VStem: 125 250<0 83 416 499> 209 82<83 416>
LayerCount: 2
Fore
SplineSet
125 750 m 25xe0
 250 750 l 25
 291 584 l 25
 209 584 l 25xd0
 125 750 l 25xe0
125 0 m 25xe0
 125 83 l 25xe0
 209 83 l 25
 209 416 l 25xd0
 125 416 l 25
 125 499 l 25
 375 499 l 25
 375 416 l 25xe0
 291 416 l 25
 291 83 l 25xd0
 375 83 l 25
 375 0 l 25
 125 0 l 25xe0
EndSplineSet
EndChar

StartChar: Iacute
Encoding: 205 205 205
Width: 500
VWidth: 0
Flags: HW
HStem: 0 21G<125 375> 416 83<125 209 291 375>
VStem: 125 250<0 83 416 499> 209 82<83 416>
LayerCount: 2
Fore
SplineSet
375 750 m 25xe0
 291 584 l 25xd0
 209 584 l 25
 250 750 l 25
 375 750 l 25xe0
125 0 m 25xe0
 125 83 l 25xe0
 209 83 l 25
 209 416 l 25xd0
 125 416 l 25
 125 499 l 25
 375 499 l 25
 375 416 l 25xe0
 291 416 l 25
 291 83 l 25xd0
 375 83 l 25
 375 0 l 25
 125 0 l 25xe0
EndSplineSet
EndChar

StartChar: Icircumflex
Encoding: 206 206 206
Width: 500
VWidth: 0
Flags: W
HStem: 0 21G<125 375> 416 83<125 209 291 375>
VStem: 125 250<0 83 416 499> 209 82<83 416>
LayerCount: 2
Fore
SplineSet
125 584 m 25xe0
 209 750 l 25
 291 750 l 25xd0
 375 584 l 25xe0
 291 584 l 25
 250 667 l 25
 209 584 l 25xd0
 125 584 l 25xe0
125 0 m 25xe0
 125 83 l 25xe0
 209 83 l 25
 209 416 l 25xd0
 125 416 l 25
 125 499 l 25
 375 499 l 25
 375 416 l 25xe0
 291 416 l 25
 291 83 l 25xd0
 375 83 l 25
 375 0 l 25
 125 0 l 25xe0
EndSplineSet
EndChar

StartChar: Idieresis
Encoding: 207 207 207
Width: 500
VWidth: 0
Flags: HW
HStem: 0 21G<125 375> 416 83<125 209 291 375> 577 100<122.417 211.583 291.438 374.562>
VStem: 114 106<585.248 668.752> 125 250<0 83 416 499> 209 82<83 416> 283 100<585.438 668.562>
LayerCount: 2
Fore
SplineSet
283 627 m 0xe2
 283 655 305 677 333 677 c 0
 361 677 383 655 383 627 c 0
 383 599 361 577 333 577 c 0
 305 577 283 599 283 627 c 0xe2
114 627 m 0xf0
 114 656 138 679 167 679 c 0
 196 679 220 656 220 627 c 0
 220 598 196 577 167 577 c 0
 138 577 114 598 114 627 c 0xf0
125 0 m 25xe8
 125 83 l 25xe8
 209 83 l 25
 209 416 l 25xe4
 125 416 l 25
 125 499 l 25
 375 499 l 25
 375 416 l 25xe8
 291 416 l 25
 291 83 l 25xe4
 375 83 l 25
 375 0 l 25
 125 0 l 25xe8
EndSplineSet
EndChar

StartChar: Eth
Encoding: 208 208 208
Width: 500
VWidth: 0
Flags: W
HStem: 0 21G<125 343.5> 292 83<41 125 209 291> 584 83<209 341.312>
VStem: 125 84<83 292 375 584> 375 84<130.359 547.91>
LayerCount: 2
Fore
SplineSet
209 584 m 9
 209 375 l 25
 291 375 l 25
 291 292 l 25
 209 292 l 17
 209 83 l 1
 239 83 267 83 291 83 c 3
 342 83 375 154 375 210 c 11
 375 307 375 361 375 458 c 19
 375 518 353 584 291 584 c 3
 269 584 241 584 209 584 c 9
41 292 m 25
 41 375 l 25
 125 375 l 25
 125 667 l 25
 190 667 232 667 291 667 c 0
 396 667 459 563 459 458 c 27
 459 361 459 307 459 210 c 0
 459 99 396 0 291 0 c 27
 226 0 190 0 125 0 c 25
 125 292 l 25
 41 292 l 25
EndSplineSet
EndChar

StartChar: Ntilde
Encoding: 209 209 209
Width: 500
VWidth: 0
Flags: W
HStem: 0 21G<41 125 344.048 459> 529 73<300.234 387.515> 676 74<111.814 200.264>
VStem: 41 84<0 420> 41 50<640 654.961> 375 84<83 503>
LayerCount: 2
Fore
SplineSet
91 602 m 9xec
 41 640 l 17
 41 693 98 750 167 750 c 27
 235 750 274 689 291 640 c 0
 298 620 318 602 344 602 c 27
 387 602 409 651 416 676 c 9
 459 640 l 17
 459 571 402 529 333 529 c 27
 264 529 233 580 209 641 c 0
 201 660 182 676 156 676 c 27
 115 676 96 640 91 602 c 9xec
41 0 m 25xf4
 41 503 l 25xec
 151 503 l 25
 375 83 l 25
 375 503 l 25
 459 503 l 25
 459 0 l 25
 355 0 l 25
 125 420 l 25
 125 0 l 25
 41 0 l 25xf4
EndSplineSet
EndChar

StartChar: Ograve
Encoding: 210 210 210
Width: 500
VWidth: 0
Flags: W
HStem: 0 21G<105 395> 418 83<159.843 340.157>
VStem: 41 84<121.414 380.354> 375 84<121.414 380.354>
LayerCount: 2
Fore
SplineSet
125 750 m 25
 250 750 l 25
 291 584 l 25
 209 584 l 25
 125 750 l 25
291 418 m 10
 209 418 l 18
 169 418 125 382 125 292 c 10
 125 210 l 18
 125 120 169 83 209 83 c 10
 291 83 l 18
 331 83 375 120 375 210 c 10
 375 292 l 18
 375 382 331 418 291 418 c 10
41 210 m 10
 41 292 l 18
 41 382 85 501 125 501 c 10
 375 501 l 18
 415 501 459 382 459 292 c 10
 459 210 l 18
 459 120 415 0 375 0 c 10
 125 0 l 18
 85 0 41 120 41 210 c 10
EndSplineSet
EndChar

StartChar: Oacute
Encoding: 211 211 211
Width: 500
VWidth: 0
Flags: HW
HStem: 0 21G<105 395> 418 83<159.843 340.157>
VStem: 41 84<121.414 380.354> 375 84<121.414 380.354>
LayerCount: 2
Fore
SplineSet
375 750 m 25
 291 584 l 25
 209 584 l 25
 250 750 l 25
 375 750 l 25
291 418 m 10
 209 418 l 18
 169 418 125 382 125 292 c 10
 125 210 l 18
 125 120 169 83 209 83 c 10
 291 83 l 18
 331 83 375 120 375 210 c 10
 375 292 l 18
 375 382 331 418 291 418 c 10
41 210 m 10
 41 292 l 18
 41 382 85 501 125 501 c 10
 375 501 l 18
 415 501 459 382 459 292 c 10
 459 210 l 18
 459 120 415 0 375 0 c 10
 125 0 l 18
 85 0 41 120 41 210 c 10
EndSplineSet
EndChar

StartChar: Ocircumflex
Encoding: 212 212 212
Width: 500
VWidth: 0
Flags: W
HStem: 0 21G<105 395> 418 83<159.843 340.157>
VStem: 41 84<121.414 380.354> 375 84<121.414 380.354>
LayerCount: 2
Fore
SplineSet
125 584 m 25
 209 750 l 25
 291 750 l 25
 375 584 l 25
 291 584 l 25
 250 667 l 25
 209 584 l 25
 125 584 l 25
291 418 m 10
 209 418 l 18
 169 418 125 382 125 292 c 10
 125 210 l 18
 125 120 169 83 209 83 c 10
 291 83 l 18
 331 83 375 120 375 210 c 10
 375 292 l 18
 375 382 331 418 291 418 c 10
41 210 m 10
 41 292 l 18
 41 382 85 501 125 501 c 10
 375 501 l 18
 415 501 459 382 459 292 c 10
 459 210 l 18
 459 120 415 0 375 0 c 10
 125 0 l 18
 85 0 41 120 41 210 c 10
EndSplineSet
EndChar

StartChar: Otilde
Encoding: 213 213 213
Width: 500
VWidth: 0
Flags: W
HStem: 0 21G<105 395> 418 83<159.843 340.157> 529 73<300.234 387.515> 676 74<111.814 200.264>
VStem: 41 84<121.414 380.354> 41 50<640 654.961> 375 84<121.414 380.354>
LayerCount: 2
Fore
SplineSet
91 602 m 9xf6
 41 640 l 17
 41 693 98 750 167 750 c 27
 235 750 274 689 291 640 c 0
 298 620 318 602 344 602 c 27
 387 602 409 651 416 676 c 9
 459 640 l 17
 459 571 402 529 333 529 c 27
 264 529 233 580 209 641 c 0
 201 660 182 676 156 676 c 27
 115 676 96 640 91 602 c 9xf6
291 418 m 10
 209 418 l 18
 169 418 125 382 125 292 c 10
 125 210 l 18xfa
 125 120 169 83 209 83 c 10
 291 83 l 18
 331 83 375 120 375 210 c 10
 375 292 l 18
 375 382 331 418 291 418 c 10
41 210 m 10
 41 292 l 18
 41 382 85 501 125 501 c 10
 375 501 l 18
 415 501 459 382 459 292 c 10
 459 210 l 18
 459 120 415 0 375 0 c 10
 125 0 l 18
 85 0 41 120 41 210 c 10
EndSplineSet
EndChar

StartChar: Odieresis
Encoding: 214 214 214
Width: 500
VWidth: 0
Flags: HW
HStem: 0 21G<105 395> 418 83<159.843 340.157> 577 100<122.417 211.583 291.438 374.562>
VStem: 41 84<121.414 380.354> 114 106<585.248 668.752> 283 100<585.438 668.562> 375 84<121.414 380.354>
LayerCount: 2
Fore
SplineSet
283 627 m 0xe4
 283 655 305 677 333 677 c 0
 361 677 383 655 383 627 c 0
 383 599 361 577 333 577 c 0
 305 577 283 599 283 627 c 0xe4
114 627 m 0xe8
 114 656 138 679 167 679 c 0
 196 679 220 656 220 627 c 0
 220 598 196 577 167 577 c 0
 138 577 114 598 114 627 c 0xe8
291 418 m 10
 209 418 l 18
 169 418 125 382 125 292 c 10
 125 210 l 18
 125 120 169 83 209 83 c 10
 291 83 l 18
 331 83 375 120 375 210 c 10
 375 292 l 18xf2
 375 382 331 418 291 418 c 10
41 210 m 10
 41 292 l 18
 41 382 85 501 125 501 c 10
 375 501 l 18
 415 501 459 382 459 292 c 10
 459 210 l 18
 459 120 415 0 375 0 c 10
 125 0 l 18
 85 0 41 120 41 210 c 10
EndSplineSet
EndChar

StartChar: multiply
Encoding: 215 215 215
Width: 500
VWidth: 0
Flags: W
LayerCount: 2
Fore
SplineSet
102 128 m 1
 44 186 l 1
 192 334 l 1
 44 482 l 1
 102 540 l 1
 250 392 l 1
 398 540 l 1
 456 482 l 1
 308 334 l 1
 456 186 l 1
 398 128 l 1
 250 276 l 1
 102 128 l 1
EndSplineSet
Validated: 1
EndChar

StartChar: Oslash
Encoding: 216 216 216
Width: 500
VWidth: 0
Flags: HW
HStem: 0 21G<105 395> 584 83<159.843 322.822>
VStem: 41 84<120.969 546.354> 375 84<121.414 541.952>
LayerCount: 2
Fore
SplineSet
125 -83 m 25
 41 -35 l 25
 375 720 l 25
 459 685 l 25
 125 -83 l 25
291 584 m 18
 331 584 375 548 375 458 c 10
 375 210 l 18
 375 120 331 83 291 83 c 10
 209 83 l 18
 169 83 125 120 125 210 c 10
 125 458 l 18
 125 548 169 584 209 584 c 10
 291 584 l 18
41 210 m 10
 41 458 l 18
 41 548 85 667 125 667 c 10
 375 667 l 18
 415 667 459 548 459 458 c 10
 459 210 l 18
 459 120 415 0 375 0 c 10
 125 0 l 18
 85 0 41 120 41 210 c 10
EndSplineSet
EndChar

StartChar: Ugrave
Encoding: 217 217 217
Width: 500
VWidth: 0
Flags: W
HStem: 0 21G<192 308>
VStem: 41 84<138.383 497> 375 84<143.46 497>
LayerCount: 2
Fore
SplineSet
251 83 m 24
 275 83 293 87 311 98 c 0
 327 108 341 122 352 138 c 0
 360 148 366 160 370 172 c 0
 374 184 375 197 375 210 c 2
 375 497 l 1
 459 497 l 1
 459 210 l 2
 459 83 366 0 250 0 c 27
 134 0 41 83 41 210 c 2
 41 497 l 1
 125 497 l 1
 125 210 l 2
 125 198 125 186 128 174 c 0
 131 163 136 152 142 142 c 0
 153 124 168 108 187 98 c 0
 187 98 225 83 251 83 c 24
125 750 m 25
 250 750 l 25
 291 584 l 25
 209 584 l 25
 125 750 l 25
EndSplineSet
EndChar

StartChar: Uacute
Encoding: 218 218 218
Width: 500
VWidth: 0
Flags: HW
HStem: 0 21G<192 308>
VStem: 41 84<138.383 497> 375 84<143.46 497>
LayerCount: 2
Fore
SplineSet
375 750 m 25
 291 584 l 25
 209 584 l 25
 250 750 l 25
 375 750 l 25
251 83 m 24
 275 83 293 87 311 98 c 0
 327 108 341 122 352 138 c 0
 360 148 366 160 370 172 c 0
 374 184 375 197 375 210 c 2
 375 497 l 1
 459 497 l 1
 459 210 l 2
 459 83 366 0 250 0 c 27
 134 0 41 83 41 210 c 2
 41 497 l 1
 125 497 l 1
 125 210 l 2
 125 198 125 186 128 174 c 0
 131 163 136 152 142 142 c 0
 153 124 168 108 187 98 c 0
 187 98 225 83 251 83 c 24
EndSplineSet
EndChar

StartChar: Ucircumflex
Encoding: 219 219 219
Width: 500
VWidth: 0
Flags: W
HStem: 0 21G<192 308>
VStem: 41 84<138.383 497> 375 84<143.46 497>
LayerCount: 2
Fore
SplineSet
125 584 m 25
 209 750 l 25
 291 750 l 25
 375 584 l 25
 291 584 l 25
 250 667 l 25
 209 584 l 25
 125 584 l 25
251 83 m 24
 275 83 293 87 311 98 c 0
 327 108 341 122 352 138 c 0
 360 148 366 160 370 172 c 0
 374 184 375 197 375 210 c 2
 375 497 l 1
 459 497 l 1
 459 210 l 2
 459 83 366 0 250 0 c 27
 134 0 41 83 41 210 c 2
 41 497 l 1
 125 497 l 1
 125 210 l 2
 125 198 125 186 128 174 c 0
 131 163 136 152 142 142 c 0
 153 124 168 108 187 98 c 0
 187 98 225 83 251 83 c 24
EndSplineSet
EndChar

StartChar: Udieresis
Encoding: 220 220 220
Width: 500
VWidth: 0
Flags: HW
HStem: 0 21G<192 308> 577 100<122.417 211.583 291.438 374.562>
VStem: 41 84<138.383 497> 114 106<585.248 668.752> 283 100<585.438 668.562> 375 84<143.46 497>
LayerCount: 2
Fore
SplineSet
283 627 m 0xc8
 283 655 305 677 333 677 c 0
 361 677 383 655 383 627 c 0
 383 599 361 577 333 577 c 0
 305 577 283 599 283 627 c 0xc8
114 627 m 0xd0
 114 656 138 679 167 679 c 0
 196 679 220 656 220 627 c 0
 220 598 196 577 167 577 c 0
 138 577 114 598 114 627 c 0xd0
251 83 m 24
 275 83 293 87 311 98 c 0
 327 108 341 122 352 138 c 0
 360 148 366 160 370 172 c 0
 374 184 375 197 375 210 c 2
 375 497 l 1
 459 497 l 1
 459 210 l 2
 459 83 366 0 250 0 c 27
 134 0 41 83 41 210 c 2
 41 497 l 1
 125 497 l 1
 125 210 l 2xe4
 125 198 125 186 128 174 c 0
 131 163 136 152 142 142 c 0
 153 124 168 108 187 98 c 0
 187 98 225 83 251 83 c 24
EndSplineSet
EndChar

StartChar: Yacute
Encoding: 221 221 221
Width: 500
VWidth: 0
Flags: HW
HStem: 0 21G<209 291>
VStem: 209 82<0 251>
LayerCount: 2
Fore
SplineSet
41 584 m 25
 125 584 l 25
 250 334 l 25
 375 584 l 25
 459 584 l 25
 291 251 l 25
 291 0 l 25
 209 0 l 25
 209 251 l 25
 41 584 l 25
375 750 m 25
 291 584 l 25
 209 584 l 25
 250 750 l 25
 375 750 l 25
EndSplineSet
EndChar

StartChar: Thorn
Encoding: 222 222 222
Width: 500
VWidth: 0
Flags: W
HStem: 0 21G<41 125> 83 81<125 311.308> 500 84<125 311.308> 647 20G<41 125>
VStem: 41 84<0 83 164 500 584 667> 375 84<236.547 427.686>
LayerCount: 2
Fore
SplineSet
125 500 m 25
 125 164 l 25
 174 164 201 164 250 164 c 27
 332 164 375 252 375 334 c 27
 375 415 331 500 250 500 c 27
 201 500 174 500 125 500 c 25
125 0 m 25
 41 0 l 25
 41 667 l 25
 125 667 l 25
 125 584 l 25
 174 584 201 584 250 584 c 27
 377 584 459 461 459 334 c 27
 459 207 377 83 250 83 c 27
 201 83 174 83 125 83 c 25
 125 0 l 25
EndSplineSet
EndChar

StartChar: germandbls
Encoding: 223 223 223
Width: 500
VWidth: 0
Flags: HW
HStem: 0 65<229.631 352.254> 233 63<229.653 370.239> 438 71<230.147 347.306> 584 83<181.63 305.354>
VStem: 41 84<0 524.867> 141 68<318.574 417.454> 391 68<103.01 213.195>
LayerCount: 2
Fore
SplineSet
125 0 m 25
 41 0 l 25
 41 179 41 279 41 458 c 27
 41 573 135 667 250 667 c 27
 370 667 416 499 416 408 c 1
 357 418 364 438 291 438 c 1
 231 438 209 402 209 357 c 27
 209 308 271 296 320 296 c 27
 395 296 459 239 459 164 c 27
 459 72 382 0 291 0 c 27
 222 0 162 29 135 83 c 9
 209 115 l 17
 214 91 253 65 291 65 c 27
 346 65 391 109 391 164 c 27
 391 203 359 233 320 233 c 27
 235 233 141 259 141 357 c 1
 141 437 188 509 250 509 c 3
 300 509 342 497 358 478 c 1
 358 515 309 584 250 584 c 27
 181 584 125 527 125 458 c 27
 125 279 125 179 125 0 c 25
EndSplineSet
EndChar

StartChar: agrave
Encoding: 224 224 224
Width: 500
VWidth: 0
Flags: W
HStem: 0 78<157.35 322.23> 210 82<157.571 317.771> 375 83<150.467 327.478> 647 20G<125 254.94>
VStem: 41 84<107.618 179.147> 375 84<0 83 107.297 180.703 210 333.777>
LayerCount: 2
Fore
SplineSet
125 144 m 0
 125 108 181 78 250 78 c 0
 319 78 375 108 375 144 c 0
 375 180 319 210 250 210 c 0
 181 210 125 180 125 144 c 0
459 334 m 9
 459 0 l 25
 375 0 l 25
 375 83 l 17
 365 45 309 0 250 0 c 27
 150 0 41 47 41 147 c 27
 41 246 151 292 250 292 c 27
 308 292 361 243 375 210 c 9
 375 292 l 17
 375 335 309 375 250 375 c 27
 199 375 129 352 125 334 c 9
 51 375 l 17
 71 399 141 458 250 458 c 3
 345 458 459 390 459 334 c 9
125 667 m 25
 250 667 l 25
 291 501 l 25
 209 501 l 25
 125 667 l 25
EndSplineSet
EndChar

StartChar: aacute
Encoding: 225 225 225
Width: 500
VWidth: 0
Flags: HW
HStem: 0 78<157.35 322.23> 210 82<157.571 317.771> 375 83<150.467 327.478> 647 20G<250 364.88>
VStem: 41 84<107.618 179.147> 375 84<0 83 107.297 180.703 210 333.777>
LayerCount: 2
Fore
SplineSet
375 667 m 25
 291 501 l 25
 209 501 l 25
 250 667 l 25
 375 667 l 25
125 144 m 0
 125 108 181 78 250 78 c 0
 319 78 375 108 375 144 c 0
 375 180 319 210 250 210 c 0
 181 210 125 180 125 144 c 0
459 334 m 9
 459 0 l 25
 375 0 l 25
 375 83 l 17
 365 45 309 0 250 0 c 27
 150 0 41 47 41 147 c 27
 41 246 151 292 250 292 c 27
 308 292 361 243 375 210 c 9
 375 292 l 17
 375 335 309 375 250 375 c 27
 199 375 129 352 125 334 c 9
 51 375 l 17
 71 399 141 458 250 458 c 3
 345 458 459 390 459 334 c 9
EndSplineSet
EndChar

StartChar: acircumflex
Encoding: 226 226 226
Width: 500
VWidth: 0
Flags: W
HStem: 0 78<157.35 322.23> 210 82<157.571 317.771> 375 83<150.467 327.478> 647 20G<198.88 301.12>
VStem: 41 84<107.618 179.147> 375 84<0 83 107.297 180.703 210 333.777>
LayerCount: 2
Fore
SplineSet
125 501 m 25
 209 667 l 25
 291 667 l 25
 375 501 l 25
 291 501 l 25
 250 584 l 25
 209 501 l 25
 125 501 l 25
125 144 m 0
 125 108 181 78 250 78 c 0
 319 78 375 108 375 144 c 0
 375 180 319 210 250 210 c 0
 181 210 125 180 125 144 c 0
459 334 m 9
 459 0 l 25
 375 0 l 25
 375 83 l 17
 365 45 309 0 250 0 c 27
 150 0 41 47 41 147 c 27
 41 246 151 292 250 292 c 27
 308 292 361 243 375 210 c 9
 375 292 l 17
 375 335 309 375 250 375 c 27
 199 375 129 352 125 334 c 9
 51 375 l 17
 71 399 141 458 250 458 c 3
 345 458 459 390 459 334 c 9
EndSplineSet
EndChar

StartChar: atilde
Encoding: 227 227 227
Width: 500
VWidth: 0
Flags: W
HStem: 0 78<157.35 322.23> 210 82<157.571 317.771> 375 83<150.467 327.478> 480 55<300.942 386.664> 609 58<112.788 199.927>
VStem: 41 84<107.618 179.147> 41 50<572 586.822> 375 84<0 83 107.297 180.703 210 333.777>
LayerCount: 2
Fore
SplineSet
91 535 m 9xfb
 41 572 l 17
 41 626 106 667 167 667 c 27
 228 667 274 621 291 573 c 0
 298 553 319 535 344 535 c 27
 384 535 409 584 416 609 c 9
 459 572 l 17
 446 525 402 480 344 480 c 27
 280 480 233 513 209 573 c 0
 201 592 181 609 156 609 c 27
 118 609 96 572 91 535 c 9xfb
125 144 m 0xfd
 125 108 181 78 250 78 c 0
 319 78 375 108 375 144 c 0
 375 180 319 210 250 210 c 0
 181 210 125 180 125 144 c 0xfd
459 334 m 9
 459 0 l 25
 375 0 l 25
 375 83 l 17
 365 45 309 0 250 0 c 27
 150 0 41 47 41 147 c 27
 41 246 151 292 250 292 c 27
 308 292 361 243 375 210 c 9
 375 292 l 17
 375 335 309 375 250 375 c 27
 199 375 129 352 125 334 c 9
 51 375 l 17
 71 399 141 458 250 458 c 3
 345 458 459 390 459 334 c 9
EndSplineSet
EndChar

StartChar: adieresis
Encoding: 228 228 228
Width: 500
VWidth: 0
Flags: HW
HStem: 0 78<157.35 322.23> 210 82<157.571 317.771> 375 83<150.467 327.478> 534 100<122.417 211.583 291.438 374.562>
VStem: 41 84<107.618 179.147> 114 106<542.248 625.752> 283 100<542.438 625.562> 375 84<0 83 107.297 180.703 210 333.777>
LayerCount: 2
Fore
SplineSet
283 584 m 0xf2
 283 612 305 634 333 634 c 0
 361 634 383 612 383 584 c 0
 383 556 361 534 333 534 c 0
 305 534 283 556 283 584 c 0xf2
114 584 m 0xf4
 114 613 138 636 167 636 c 0
 196 636 220 613 220 584 c 0
 220 555 196 534 167 534 c 0
 138 534 114 555 114 584 c 0xf4
125 144 m 0xf9
 125 108 181 78 250 78 c 0
 319 78 375 108 375 144 c 0
 375 180 319 210 250 210 c 0
 181 210 125 180 125 144 c 0xf9
459 334 m 9
 459 0 l 25
 375 0 l 25
 375 83 l 17
 365 45 309 0 250 0 c 27
 150 0 41 47 41 147 c 27
 41 246 151 292 250 292 c 27
 308 292 361 243 375 210 c 9
 375 292 l 17
 375 335 309 375 250 375 c 27
 199 375 129 352 125 334 c 9
 51 375 l 17
 71 399 141 458 250 458 c 3
 345 458 459 390 459 334 c 9
EndSplineSet
EndChar

StartChar: aring
Encoding: 229 229 229
Width: 500
VWidth: 0
Flags: W
HStem: 0 78<157.35 322.23> 210 82<157.571 317.771> 375 83<150.467 327.478> 466 64<211.341 288.436> 626 64<211.341 288.721>
VStem: 41 84<107.618 179.147> 140 64<536.563 619.437> 296 65<536.672 619.437> 375 84<0 83 107.297 180.703 210 333.777>
LayerCount: 2
Fore
SplineSet
204 578 m 0
 204 551 222 530 250 530 c 0
 278 530 296 552 296 578 c 0
 296 605 278 626 250 626 c 0
 222 626 204 605 204 578 c 0
140 578 m 0
 140 640 189 690 250 690 c 0
 311 690 361 640 361 578 c 0
 361 516 311 466 250 466 c 0
 189 466 140 516 140 578 c 0
125 144 m 0
 125 108 181 78 250 78 c 0
 319 78 375 108 375 144 c 0
 375 180 319 210 250 210 c 0
 181 210 125 180 125 144 c 0
459 334 m 9
 459 0 l 25
 375 0 l 25
 375 83 l 17
 365 45 309 0 250 0 c 27
 150 0 41 47 41 147 c 27
 41 246 151 292 250 292 c 27
 308 292 361 243 375 210 c 9
 375 292 l 17
 375 335 309 375 250 375 c 27
 199 375 129 352 125 334 c 9
 51 375 l 17
 71 399 141 458 250 458 c 3
 345 458 459 390 459 334 c 9
EndSplineSet
EndChar

StartChar: ae
Encoding: 230 230 230
Width: 500
VWidth: 0
Flags: W
HStem: 0 21G<41 459> 63 20G<41 459>
LayerCount: 2
Fore
SplineSet
41 83 m 1
 459 83 l 1
 459 0 l 1
 41 0 l 1
 41 83 l 1
EndSplineSet
Validated: 1
EndChar

StartChar: ccedilla
Encoding: 231 231 231
Width: 500
VWidth: 0
Flags: W
HStem: 0 21G<41 459> 63 20G<41 459>
LayerCount: 2
Fore
SplineSet
41 83 m 1
 459 83 l 1
 459 0 l 1
 41 0 l 1
 41 83 l 1
EndSplineSet
Validated: 1
EndChar

StartChar: egrave
Encoding: 232 232 232
Width: 500
VWidth: 0
Flags: W
HStem: 0 21G<189.5 312.5> 229 63<136 361> 375 83<180.564 315.598> 647 20G<125 254.94>
VStem: 41 84<142.172 229> 375 84<111.566 154>
LayerCount: 2
Fore
SplineSet
125 667 m 25
 250 667 l 25
 291 501 l 25
 209 501 l 25
 125 667 l 25
250 375 m 27
 195 375 141 334 136 292 c 9
 361 292 l 17
 353 334 304 375 250 375 c 27
250 458 m 27
 371 458 459 360 459 229 c 9
 125 229 l 17
 125 135 175 83 250 83 c 27
 306 83 375 98 375 154 c 9
 459 154 l 17
 459 78 375 0 250 0 c 3
 129 0 41 108 41 229 c 27
 41 350 129 458 250 458 c 27
EndSplineSet
EndChar

StartChar: eacute
Encoding: 233 233 233
Width: 500
VWidth: 0
Flags: HW
HStem: 0 21G<189.5 312.5> 229 63<136 361> 375 83<180.564 315.598> 647 20G<250 364.88>
VStem: 41 84<142.172 229> 375 84<111.566 154>
LayerCount: 2
Fore
SplineSet
375 667 m 25
 291 501 l 25
 209 501 l 25
 250 667 l 25
 375 667 l 25
250 375 m 27
 195 375 141 334 136 292 c 9
 361 292 l 17
 353 334 304 375 250 375 c 27
250 458 m 27
 371 458 459 360 459 229 c 9
 125 229 l 17
 125 135 175 83 250 83 c 27
 306 83 375 98 375 154 c 9
 459 154 l 17
 459 78 375 0 250 0 c 3
 129 0 41 108 41 229 c 27
 41 350 129 458 250 458 c 27
EndSplineSet
EndChar

StartChar: ecircumflex
Encoding: 234 234 234
Width: 500
VWidth: 0
Flags: W
HStem: 0 21G<189.5 312.5> 229 63<136 361> 375 83<180.564 315.598> 647 20G<198.88 301.12>
VStem: 41 84<142.172 229> 375 84<111.566 154>
LayerCount: 2
Fore
SplineSet
125 501 m 25
 209 667 l 25
 291 667 l 25
 375 501 l 25
 291 501 l 25
 250 584 l 25
 209 501 l 25
 125 501 l 25
250 375 m 27
 195 375 141 334 136 292 c 9
 361 292 l 17
 353 334 304 375 250 375 c 27
250 458 m 27
 371 458 459 360 459 229 c 9
 125 229 l 17
 125 135 175 83 250 83 c 27
 306 83 375 98 375 154 c 9
 459 154 l 17
 459 78 375 0 250 0 c 3
 129 0 41 108 41 229 c 27
 41 350 129 458 250 458 c 27
EndSplineSet
EndChar

StartChar: edieresis
Encoding: 235 235 235
Width: 500
VWidth: 0
Flags: HW
HStem: 0 21G<189.5 312.5> 229 63<136 361> 375 83<180.564 315.598> 534 100<122.417 211.583 291.438 374.562>
VStem: 41 84<142.172 229> 114 106<542.248 625.752> 283 100<542.438 625.562> 375 84<111.566 154>
LayerCount: 2
Fore
SplineSet
283 584 m 0xf2
 283 612 305 634 333 634 c 0
 361 634 383 612 383 584 c 0
 383 556 361 534 333 534 c 0
 305 534 283 556 283 584 c 0xf2
114 584 m 0xf4
 114 613 138 636 167 636 c 0
 196 636 220 613 220 584 c 0
 220 555 196 534 167 534 c 0
 138 534 114 555 114 584 c 0xf4
250 375 m 27
 195 375 141 334 136 292 c 9
 361 292 l 17
 353 334 304 375 250 375 c 27
250 458 m 27
 371 458 459 360 459 229 c 9
 125 229 l 17
 125 135 175 83 250 83 c 27
 306 83 375 98 375 154 c 9
 459 154 l 17
 459 78 375 0 250 0 c 3
 129 0 41 108 41 229 c 27xf9
 41 350 129 458 250 458 c 27
EndSplineSet
EndChar

StartChar: igrave
Encoding: 236 236 236
Width: 500
VWidth: 0
Flags: W
HStem: 0 21G<209 291> 647 20G<125 254.94>
VStem: 209 82<0 375>
LayerCount: 2
Fore
SplineSet
125 667 m 25
 250 667 l 25
 291 501 l 25
 209 501 l 25
 125 667 l 25
291 458 m 25
 291 0 l 25
 209 0 l 25
 209 375 l 25
 125 458 l 25
 291 458 l 25
EndSplineSet
EndChar

StartChar: iacute
Encoding: 237 237 237
Width: 500
VWidth: 0
Flags: HW
HStem: 0 21G<209 291> 647 20G<250 364.88>
VStem: 209 82<0 375>
LayerCount: 2
Fore
SplineSet
375 667 m 25
 291 501 l 25
 209 501 l 25
 250 667 l 25
 375 667 l 25
291 458 m 25
 291 0 l 25
 209 0 l 25
 209 375 l 25
 125 458 l 25
 291 458 l 25
EndSplineSet
EndChar

StartChar: icircumflex
Encoding: 238 238 238
Width: 500
VWidth: 0
Flags: W
HStem: 0 21G<209 291> 647 20G<198.88 301.12>
VStem: 209 82<0 375>
LayerCount: 2
Fore
SplineSet
125 501 m 25
 209 667 l 25
 291 667 l 25
 375 501 l 25
 291 501 l 25
 250 584 l 25
 209 501 l 25
 125 501 l 25
291 458 m 25
 291 0 l 25
 209 0 l 25
 209 375 l 25
 125 458 l 25
 291 458 l 25
EndSplineSet
EndChar

StartChar: idieresis
Encoding: 239 239 239
Width: 500
VWidth: 0
Flags: HW
HStem: 0 21G<209 291> 534 100<122.417 211.583 291.438 374.562>
VStem: 114 106<542.248 625.752> 209 82<0 375> 283 100<542.438 625.562>
LayerCount: 2
Fore
SplineSet
283 584 m 0xc8
 283 612 305 634 333 634 c 0
 361 634 383 612 383 584 c 0
 383 556 361 534 333 534 c 0
 305 534 283 556 283 584 c 0xc8
114 584 m 0xe0
 114 613 138 636 167 636 c 0
 196 636 220 613 220 584 c 0
 220 555 196 534 167 534 c 0
 138 534 114 555 114 584 c 0xe0
291 458 m 25xd0
 291 0 l 25
 209 0 l 25
 209 375 l 25
 125 458 l 25
 291 458 l 25xd0
EndSplineSet
EndChar

StartChar: eth
Encoding: 240 240 240
Width: 500
VWidth: 0
Flags: W
HStem: 0 21G<41 459> 63 20G<41 459>
LayerCount: 2
Fore
SplineSet
41 83 m 1
 459 83 l 1
 459 0 l 1
 41 0 l 1
 41 83 l 1
EndSplineSet
Validated: 1
EndChar

StartChar: ntilde
Encoding: 241 241 241
Width: 500
VWidth: 0
Flags: W
HStem: 0 21G<41 125 375 459> 375 83<198.622 336.229> 480 55<300.942 386.664> 609 58<112.788 199.927>
VStem: 41 84<0 313.242 354 458 458 458> 41 50<572 586.822> 375 84<0 338.14>
LayerCount: 2
Fore
SplineSet
91 535 m 9xf6
 41 572 l 17
 41 626 106 667 167 667 c 27
 228 667 274 621 291 573 c 0
 298 553 319 535 344 535 c 27
 384 535 409 584 416 609 c 9
 459 572 l 17
 446 525 402 480 344 480 c 27
 280 480 233 513 209 573 c 0
 201 592 181 609 156 609 c 27
 118 609 96 572 91 535 c 9xf6
125 0 m 25xfa
 41 0 l 25
 41 458 l 25
 125 458 l 25
 125 354 l 17
 125 410 215 458 291 458 c 3
 380 458 459 375 459 292 c 10
 459 0 l 25
 375 0 l 25
 375 266 l 18
 375 330 347 375 250 375 c 0
 175 375 125 309 125 229 c 10
 125 0 l 25xfa
EndSplineSet
EndChar

StartChar: ograve
Encoding: 242 242 242
Width: 500
VWidth: 0
Flags: W
HStem: 0 21G<133.5 368.5> 375 83<152.835 345.786> 647 20G<125 254.94>
VStem: 41 84<110.248 346.763> 375 84<112.225 163 163 346.763>
LayerCount: 2
Fore
SplineSet
125 667 m 25
 250 667 l 25
 291 501 l 25
 209 501 l 25
 125 667 l 25
209 375 m 27
 163 375 125 337 125 291 c 27
 125 240 125 210 125 159 c 27
 125 115 165 83 209 83 c 27
 241 83 259 83 291 83 c 27
 336 83 375 118 375 163 c 27
 375 213 375 242 375 292 c 27
 375 338 337 375 291 375 c 27
 259 375 241 375 209 375 c 27
41 123 m 27
 41 205 41 252 41 334 c 27
 41 403 99 458 169 458 c 27
 233 458 269 458 333 458 c 27
 402 458 459 403 459 334 c 27
 459 252 459 207 459 125 c 27
 459 56 403 0 334 0 c 27
 269 0 233 0 168 0 c 27
 99 0 41 54 41 123 c 27
EndSplineSet
EndChar

StartChar: oacute
Encoding: 243 243 243
Width: 500
VWidth: 0
Flags: HW
HStem: 0 21G<133.5 368.5> 375 83<152.835 345.786> 647 20G<250 364.88>
VStem: 41 84<110.248 346.763> 375 84<112.225 163 163 346.763>
LayerCount: 2
Fore
SplineSet
375 667 m 25
 291 501 l 25
 209 501 l 25
 250 667 l 25
 375 667 l 25
209 375 m 27
 163 375 125 337 125 291 c 27
 125 240 125 210 125 159 c 27
 125 115 165 83 209 83 c 27
 241 83 259 83 291 83 c 27
 336 83 375 118 375 163 c 27
 375 213 375 242 375 292 c 27
 375 338 337 375 291 375 c 27
 259 375 241 375 209 375 c 27
41 123 m 27
 41 205 41 252 41 334 c 27
 41 403 99 458 169 458 c 27
 233 458 269 458 333 458 c 27
 402 458 459 403 459 334 c 27
 459 252 459 207 459 125 c 27
 459 56 403 0 334 0 c 27
 269 0 233 0 168 0 c 27
 99 0 41 54 41 123 c 27
EndSplineSet
EndChar

StartChar: ocircumflex
Encoding: 244 244 244
Width: 500
VWidth: 0
Flags: W
HStem: 0 21G<133.5 368.5> 375 83<152.835 345.786> 647 20G<198.88 301.12>
VStem: 41 84<110.248 346.763> 375 84<112.225 163 163 346.763>
LayerCount: 2
Fore
SplineSet
125 501 m 25
 209 667 l 25
 291 667 l 25
 375 501 l 25
 291 501 l 25
 250 584 l 25
 209 501 l 25
 125 501 l 25
209 375 m 27
 163 375 125 337 125 291 c 27
 125 240 125 210 125 159 c 27
 125 115 165 83 209 83 c 27
 241 83 259 83 291 83 c 27
 336 83 375 118 375 163 c 27
 375 213 375 242 375 292 c 27
 375 338 337 375 291 375 c 27
 259 375 241 375 209 375 c 27
41 123 m 27
 41 205 41 252 41 334 c 27
 41 403 99 458 169 458 c 27
 233 458 269 458 333 458 c 27
 402 458 459 403 459 334 c 27
 459 252 459 207 459 125 c 27
 459 56 403 0 334 0 c 27
 269 0 233 0 168 0 c 27
 99 0 41 54 41 123 c 27
EndSplineSet
EndChar

StartChar: otilde
Encoding: 245 245 245
Width: 500
VWidth: 0
Flags: W
HStem: 0 21G<133.5 368.5> 375 83<152.835 345.786> 480 55<300.942 386.664> 609 58<112.788 199.927>
VStem: 41 84<110.248 346.763> 41 50<572 586.822> 375 84<112.225 163 163 346.763>
LayerCount: 2
Fore
SplineSet
91 535 m 9xf6
 41 572 l 17
 41 626 106 667 167 667 c 27
 228 667 274 621 291 573 c 0
 298 553 319 535 344 535 c 27
 384 535 409 584 416 609 c 9
 459 572 l 17
 446 525 402 480 344 480 c 27
 280 480 233 513 209 573 c 0
 201 592 181 609 156 609 c 27
 118 609 96 572 91 535 c 9xf6
209 375 m 27
 163 375 125 337 125 291 c 27
 125 240 125 210 125 159 c 27xfa
 125 115 165 83 209 83 c 27
 241 83 259 83 291 83 c 27
 336 83 375 118 375 163 c 27
 375 213 375 242 375 292 c 27
 375 338 337 375 291 375 c 27
 259 375 241 375 209 375 c 27
41 123 m 27
 41 205 41 252 41 334 c 27
 41 403 99 458 169 458 c 27
 233 458 269 458 333 458 c 27
 402 458 459 403 459 334 c 27
 459 252 459 207 459 125 c 27
 459 56 403 0 334 0 c 27
 269 0 233 0 168 0 c 27
 99 0 41 54 41 123 c 27
EndSplineSet
EndChar

StartChar: odieresis
Encoding: 246 246 246
Width: 500
VWidth: 0
Flags: HW
HStem: 0 21G<133.5 368.5> 375 83<152.835 345.786> 534 100<122.417 211.583 291.438 374.562>
VStem: 41 84<110.248 346.763> 114 106<542.248 625.752> 283 100<542.438 625.562> 375 84<112.225 163 163 346.763>
LayerCount: 2
Fore
SplineSet
283 584 m 0xe4
 283 612 305 634 333 634 c 0
 361 634 383 612 383 584 c 0
 383 556 361 534 333 534 c 0
 305 534 283 556 283 584 c 0xe4
114 584 m 0xe8
 114 613 138 636 167 636 c 0
 196 636 220 613 220 584 c 0
 220 555 196 534 167 534 c 0
 138 534 114 555 114 584 c 0xe8
209 375 m 27
 163 375 125 337 125 291 c 27
 125 240 125 210 125 159 c 27
 125 115 165 83 209 83 c 27
 241 83 259 83 291 83 c 27
 336 83 375 118 375 163 c 27
 375 213 375 242 375 292 c 27xf2
 375 338 337 375 291 375 c 27
 259 375 241 375 209 375 c 27
41 123 m 27
 41 205 41 252 41 334 c 27
 41 403 99 458 169 458 c 27
 233 458 269 458 333 458 c 27
 402 458 459 403 459 334 c 27
 459 252 459 207 459 125 c 27
 459 56 403 0 334 0 c 27
 269 0 233 0 168 0 c 27
 99 0 41 54 41 123 c 27
EndSplineSet
EndChar

StartChar: divide
Encoding: 247 247 247
Width: 500
VWidth: 0
Flags: W
HStem: 126 98<209.385 290.615> 292 83<41 459> 442 98<209.385 290.615>
VStem: 201 98<134.385 215.615 450.385 531.615>
LayerCount: 2
Fore
SplineSet
201 175 m 0
 201 202 223 224 250 224 c 0
 277 224 299 202 299 175 c 0
 299 148 277 126 250 126 c 0
 223 126 201 148 201 175 c 0
201 491 m 0
 201 518 223 540 250 540 c 0
 277 540 299 518 299 491 c 0
 299 464 277 442 250 442 c 0
 223 442 201 464 201 491 c 0
41 375 m 1
 459 375 l 1
 459 292 l 1
 41 292 l 1
 41 375 l 1
EndSplineSet
EndChar

StartChar: oslash
Encoding: 248 248 248
Width: 500
VWidth: 0
Flags: HW
HStem: 0 21G<133.5 368.5> 375 83<152.835 295.288>
VStem: 41 84<108.44 346.763> 375 84<112.225 163 163 347.871>
LayerCount: 2
Fore
SplineSet
125 -83 m 25
 41 -35 l 25
 375 531 l 25
 459 489 l 25
 125 -83 l 25
209 375 m 27
 241 375 259 375 291 375 c 27
 337 375 375 338 375 292 c 27
 375 242 375 213 375 163 c 27
 375 118 336 83 291 83 c 27
 259 83 241 83 209 83 c 27
 165 83 125 115 125 159 c 27
 125 210 125 240 125 291 c 27
 125 337 163 375 209 375 c 27
41 123 m 27
 41 205 41 252 41 334 c 27
 41 403 99 458 169 458 c 27
 233 458 269 458 333 458 c 27
 402 458 459 403 459 334 c 27
 459 252 459 207 459 125 c 27
 459 56 403 0 334 0 c 27
 269 0 233 0 168 0 c 27
 99 0 41 54 41 123 c 27
EndSplineSet
EndChar

StartChar: ugrave
Encoding: 249 249 249
Width: 500
VWidth: 0
Flags: W
HStem: -0 21G<145 247 375 459> 647 20G<125 254.94>
VStem: 41 84<121.557 458> 375 84<0 104 144.758 229 229 458>
LayerCount: 2
Fore
SplineSet
125 667 m 25
 250 667 l 25
 291 501 l 25
 209 501 l 25
 125 667 l 25
375 458 m 25
 459 458 l 25
 459 -0 l 25
 375 -0 l 25
 375 104 l 17
 375 48 285 -0 209 -0 c 3
 81 -0 41 52 41 166 c 10
 41 458 l 25
 125 458 l 25
 125 192 l 18
 125 128 153 83 250 83 c 0
 325 83 375 149 375 229 c 10
 375 458 l 25
EndSplineSet
EndChar

StartChar: uacute
Encoding: 250 250 250
Width: 500
VWidth: 0
Flags: HW
HStem: -0 21G<145 247 375 459> 647 20G<250 364.88>
VStem: 41 84<121.557 458> 375 84<0 104 144.758 229 229 458>
LayerCount: 2
Fore
SplineSet
375 667 m 25
 291 501 l 25
 209 501 l 25
 250 667 l 25
 375 667 l 25
375 458 m 25
 459 458 l 25
 459 -0 l 25
 375 -0 l 25
 375 104 l 17
 375 48 285 -0 209 -0 c 3
 81 -0 41 52 41 166 c 10
 41 458 l 25
 125 458 l 25
 125 192 l 18
 125 128 153 83 250 83 c 0
 325 83 375 149 375 229 c 10
 375 458 l 25
EndSplineSet
EndChar

StartChar: ucircumflex
Encoding: 251 251 251
Width: 500
VWidth: 0
Flags: W
HStem: -0 21G<145 247 375 459> 647 20G<198.88 301.12>
VStem: 41 84<121.557 458> 375 84<0 104 144.758 229 229 458>
LayerCount: 2
Fore
SplineSet
125 501 m 25
 209 667 l 25
 291 667 l 25
 375 501 l 25
 291 501 l 25
 250 584 l 25
 209 501 l 25
 125 501 l 25
375 458 m 25
 459 458 l 25
 459 -0 l 25
 375 -0 l 25
 375 104 l 17
 375 48 285 -0 209 -0 c 3
 81 -0 41 52 41 166 c 10
 41 458 l 25
 125 458 l 25
 125 192 l 18
 125 128 153 83 250 83 c 0
 325 83 375 149 375 229 c 10
 375 458 l 25
EndSplineSet
EndChar

StartChar: udieresis
Encoding: 252 252 252
Width: 500
VWidth: 0
Flags: HW
HStem: -0 21G<145 247 375 459> 534 100<122.417 211.583 291.438 374.562>
VStem: 41 84<121.557 458> 114 106<542.248 625.752> 283 100<542.438 625.562> 375 84<0 104 144.758 229 229 458>
LayerCount: 2
Fore
SplineSet
375 458 m 25xe4
 459 458 l 25
 459 -0 l 25
 375 -0 l 25
 375 104 l 17
 375 48 285 -0 209 -0 c 3
 81 -0 41 52 41 166 c 10
 41 458 l 25
 125 458 l 25
 125 192 l 18
 125 128 153 83 250 83 c 0
 325 83 375 149 375 229 c 10
 375 458 l 25xe4
283 584 m 0xc8
 283 612 305 634 333 634 c 0
 361 634 383 612 383 584 c 0
 383 556 361 534 333 534 c 0
 305 534 283 556 283 584 c 0xc8
114 584 m 0xd0
 114 613 138 636 167 636 c 0
 196 636 220 613 220 584 c 0
 220 555 196 534 167 534 c 0
 138 534 114 555 114 584 c 0xd0
EndSplineSet
EndChar

StartChar: yacute
Encoding: 253 253 253
Width: 500
VWidth: 0
Flags: HW
HStem: -166 83<151.784 336.406> 42 83<187.414 312.464> 647 20G<250 364.88>
VStem: 41 84<-58.383 -20 198.707 458> 375 84<-45.5975 130 197.337 458>
LayerCount: 2
Fore
SplineSet
375 667 m 25
 291 501 l 25
 209 501 l 25
 250 667 l 25
 375 667 l 25
41 458 m 25
 125 458 l 25
 125 292 l 18
 125 212 169 125 250 125 c 24
 331 125 375 212 375 292 c 10
 375 458 l 25
 459 458 l 25
 459 0 l 18
 459 -104 355 -166 251 -166 c 27
 151 -166 41 -118 41 -20 c 9
 125 -20 l 17
 125 -69 195 -83 249 -83 c 19
 314 -83 375 -54 375 0 c 9
 375 130 l 17
 363 69 310 42 250 42 c 27
 145 42 41 130 41 210 c 10
 41 458 l 25
EndSplineSet
EndChar

StartChar: thorn
Encoding: 254 254 254
Width: 500
VWidth: 0
Flags: W
HStem: 0 21G<41 459> 63 20G<41 459>
LayerCount: 2
Fore
SplineSet
41 83 m 1
 459 83 l 1
 459 0 l 1
 41 0 l 1
 41 83 l 1
EndSplineSet
Validated: 1
EndChar

StartChar: ydieresis
Encoding: 255 255 255
Width: 500
VWidth: 0
Flags: HW
HStem: -166 83<151.784 336.406> 42 83<187.414 312.464> 534 100<122.417 211.583 291.438 374.562>
VStem: 41 84<-58.383 -20 198.707 458> 114 106<542.248 625.752> 283 100<542.438 625.562> 375 84<-45.5975 130 197.337 458>
LayerCount: 2
Fore
SplineSet
283 584 m 0xe4
 283 612 305 634 333 634 c 0
 361 634 383 612 383 584 c 0
 383 556 361 534 333 534 c 0
 305 534 283 556 283 584 c 0xe4
114 584 m 0xe8
 114 613 138 636 167 636 c 0
 196 636 220 613 220 584 c 0
 220 555 196 534 167 534 c 0
 138 534 114 555 114 584 c 0xe8
41 458 m 25xf2
 125 458 l 25
 125 292 l 18
 125 212 169 125 250 125 c 24
 331 125 375 212 375 292 c 10
 375 458 l 25
 459 458 l 25
 459 0 l 18
 459 -104 355 -166 251 -166 c 27
 151 -166 41 -118 41 -20 c 9
 125 -20 l 17
 125 -69 195 -83 249 -83 c 19
 314 -83 375 -54 375 0 c 9
 375 130 l 17
 363 69 310 42 250 42 c 27
 145 42 41 130 41 210 c 10
 41 458 l 25xf2
EndSplineSet
EndChar

StartChar: arrowright
Encoding: 8594 8594 256
Width: 500
VWidth: 0
HStem: 292 83<41 291>
LayerCount: 2
Fore
SplineSet
41 292 m 25
 41 375 l 25
 291 375 l 25
 291 458 l 25
 459 375 l 25
 459 292 l 25
 291 210 l 25
 291 292 l 25
 41 292 l 25
EndSplineSet
EndChar

StartChar: ltshade
Encoding: 9617 9617 258
Width: 500
VWidth: 0
Flags: H
HStem: 43 40<84 125 168 209 250 291 334 375 418 459> 126 40<41 82 125 166 209 250 291 332 375 416> 210 41<84 125 168 209 250 291 334 375 418 459> 292 42<41 82 125 166 209 250 291 332 375 416> 375 40<84 125 168 209 250 291 334 375 418 459> 458 40<41 82 125 166 209 250 291 332 375 416> 544 40<84 125 168 209 250 291 334 375 418 459> 627 40<41 82 125 166 209 250 291 332 375 416>
VStem: 41 41<126 166 292 334 458 498 627 667> 84 41<43 83 210 251 375 415 544 584> 125 41<126 166 292 334 458 498 627 667> 168 41<43 83 210 251 375 415 544 584> 209 41<126 166 292 334 458 498 627 667> 250 41<43 83 210 250 375 415 544 584> 291 41<126 166 292 334 458 498 627 667> 334 41<43 83 210 251 375 415 544 584> 375 41<126 166 292 334 458 498 627 667> 418 41<43 83 210 251 375 415 544 584>
LayerCount: 2
Fore
SplineSet
418 83 m 1
 459 83 l 1
 459 43 l 1
 418 43 l 1
 418 83 l 1
334 83 m 1
 375 83 l 1
 375 43 l 1
 334 43 l 1
 334 83 l 1
250 83 m 1
 291 83 l 1
 291 43 l 1
 250 43 l 1
 250 83 l 1
168 83 m 1
 209 83 l 1
 209 43 l 1
 168 43 l 1
 168 83 l 1
84 83 m 1
 125 83 l 1
 125 43 l 1
 84 43 l 1
 84 83 l 1
375 166 m 1
 418 166 l 1
 418 126 l 1
 375 126 l 1
 375 166 l 1
291 166 m 1
 334 166 l 1
 334 126 l 1
 291 126 l 1
 291 166 l 1
209 166 m 1
 250 166 l 1
 250 126 l 1
 209 126 l 1
 209 166 l 1
125 166 m 1
 168 166 l 1
 168 126 l 1
 125 126 l 1
 125 166 l 1
41 166 m 1
 84 166 l 1
 84 126 l 1
 41 126 l 1
 41 166 l 1
418 251 m 1
 459 251 l 1
 459 210 l 1
 418 210 l 1
 418 251 l 1
334 251 m 1
 375 251 l 1
 375 210 l 1
 334 210 l 1
 334 251 l 1
250 250 m 1
 291 250 l 1
 291 210 l 1
 250 210 l 1
 250 250 l 1
168 251 m 1
 209 251 l 1
 209 210 l 1
 168 210 l 1
 168 251 l 1
84 251 m 1
 125 251 l 1
 125 210 l 1
 84 210 l 1
 84 251 l 1
375 334 m 1
 418 334 l 1
 418 292 l 1
 375 292 l 1
 375 334 l 1
291 334 m 1
 334 334 l 1
 334 292 l 1
 291 292 l 1
 291 334 l 1
209 334 m 1
 250 334 l 1
 250 292 l 1
 209 292 l 1
 209 334 l 1
125 334 m 1
 168 334 l 1
 168 292 l 1
 125 292 l 1
 125 334 l 1
41 334 m 1
 84 334 l 1
 84 292 l 1
 41 292 l 1
 41 334 l 1
418 415 m 1
 459 415 l 1
 459 375 l 1
 418 375 l 1
 418 415 l 1
334 415 m 1
 375 415 l 1
 375 375 l 1
 334 375 l 1
 334 415 l 1
250 415 m 1
 291 415 l 1
 291 375 l 1
 250 375 l 1
 250 415 l 1
168 415 m 1
 209 415 l 1
 209 375 l 1
 168 375 l 1
 168 415 l 1
84 415 m 1
 125 415 l 1
 125 375 l 1
 84 375 l 1
 84 415 l 1
375 498 m 1
 418 498 l 1
 418 458 l 1
 375 458 l 1
 375 498 l 1
291 498 m 1
 334 498 l 1
 334 458 l 1
 291 458 l 1
 291 498 l 1
209 498 m 1
 250 498 l 1
 250 458 l 1
 209 458 l 1
 209 498 l 1
125 498 m 1
 168 498 l 1
 168 458 l 1
 125 458 l 1
 125 498 l 1
41 498 m 1
 84 498 l 1
 84 458 l 1
 41 458 l 1
 41 498 l 1
418 584 m 1
 459 584 l 1
 459 544 l 1
 418 544 l 1
 418 584 l 1
334 584 m 1
 375 584 l 1
 375 544 l 1
 334 544 l 1
 334 584 l 1
250 584 m 1
 291 584 l 1
 291 544 l 1
 250 544 l 1
 250 584 l 1
168 584 m 1
 209 584 l 1
 209 544 l 1
 168 544 l 1
 168 584 l 1
84 584 m 1
 125 584 l 1
 125 544 l 1
 84 544 l 1
 84 584 l 1
375 667 m 1
 418 667 l 1
 418 627 l 1
 375 627 l 1
 375 667 l 1
291 667 m 1
 334 667 l 1
 334 627 l 1
 291 627 l 1
 291 667 l 1
209 667 m 1
 250 667 l 1
 250 627 l 1
 209 627 l 1
 209 667 l 1
125 667 m 1
 168 667 l 1
 168 627 l 1
 125 627 l 1
 125 667 l 1
41 667 m 1
 84 667 l 1
 84 627 l 1
 41 627 l 1
 41 667 l 1
EndSplineSet
EndChar

StartChar: shade
Encoding: 9618 9618 259
Width: 500
VWidth: 0
Flags: HW
HStem: 1 40<84 125 168 209 250 291 334 375 418 459> 44 40<41 82 125 166 209 250 291 332 375 416> 84 40<84 125 168 209 250 291 334 375 418 459> 127 40<41 82 125 166 209 250 291 332 375 416> 168 40<84 125 168 209 250 291 334 375 418 459> 211 40<41 82 125 166 209 250 291 332 375 416> 251 40<84 125 168 209 250 291 334 375 418 459> 294 40<41 82 125 166 209 250 291 332 375 416> 334 40<84 125 168 209 250 291 334 375 418 459> 377 40<41 82 125 166 209 250 291 332 375 416> 417 40<84 125 168 209 250 291 334 375 418 459> 460 40<41 82 125 166 209 250 291 332 375 416> 501 40<84 125 168 209 250 291 334 375 418 459> 544 40<41 82 125 166 209 250 291 332 375 416> 584 40<84 125 168 209 250 291 334 375 418 459> 627 40<41 82 125 166 209 250 291 332 375 416>
VStem: 41 41<44 84 127 167 211 251 294 334 377 417 460 500 544 584 627 667> 84 41<1 41 84 124 168 208 251 291 334 374 417 457 501 541 584 624> 125 41<44 84 127 167 211 251 294 334 377 417 460 500 544 584 627 667> 168 41<1 41 84 124 168 208 251 291 334 374 417 457 501 541 584 624> 209 41<44 84 127 167 211 251 294 334 377 417 460 500 544 584 627 667> 250 41<1 41 84 124 168 208 251 291 334 374 417 457 501 541 584 624> 291 41<44 84 127 167 211 251 294 334 377 417 460 500 544 584 627 667> 334 41<1 41 84 124 168 208 251 291 334 374 417 457 501 541 584 624> 375 41<44 84 127 167 211 251 294 334 377 417 460 500 544 584 627 667> 418 41<1 41 84 124 168 208 251 291 334 374 417 457 501 541 584 624>
LayerCount: 2
Fore
SplineSet
418 41 m 1
 459 41 l 1
 459 1 l 1
 418 1 l 1
 418 41 l 1
334 41 m 1
 375 41 l 1
 375 1 l 1
 334 1 l 1
 334 41 l 1
250 41 m 1
 291 41 l 1
 291 1 l 1
 250 1 l 1
 250 41 l 1
168 41 m 1
 209 41 l 1
 209 1 l 1
 168 1 l 1
 168 41 l 1
84 41 m 1
 125 41 l 1
 125 1 l 1
 84 1 l 1
 84 41 l 1
375 84 m 1
 418 84 l 1
 418 44 l 1
 375 44 l 1
 375 84 l 1
291 84 m 1
 334 84 l 1
 334 44 l 1
 291 44 l 1
 291 84 l 1
209 84 m 1
 250 84 l 1
 250 44 l 1
 209 44 l 1
 209 84 l 1
125 84 m 1
 168 84 l 1
 168 44 l 1
 125 44 l 1
 125 84 l 1
41 84 m 1
 84 84 l 1
 84 44 l 1
 41 44 l 1
 41 84 l 1
418 124 m 1
 459 124 l 1
 459 84 l 1
 418 84 l 1
 418 124 l 1
334 124 m 1
 375 124 l 1
 375 84 l 1
 334 84 l 1
 334 124 l 1
250 124 m 1
 291 124 l 1
 291 84 l 1
 250 84 l 1
 250 124 l 1
168 124 m 1
 209 124 l 1
 209 84 l 1
 168 84 l 1
 168 124 l 1
84 124 m 1
 125 124 l 1
 125 84 l 1
 84 84 l 1
 84 124 l 1
375 168 m 1
 416 168 l 1
 418 127 l 1
 375 127 l 1
 375 168 l 1
291 168 m 1
 332 168 l 1
 334 127 l 1
 291 127 l 1
 291 168 l 1
209 168 m 1
 250 168 l 1
 250 127 l 1
 209 127 l 1
 209 168 l 1
125 168 m 1
 166 168 l 1
 168 127 l 1
 125 127 l 1
 125 168 l 1
41 168 m 1
 82 168 l 1
 84 127 l 1
 41 127 l 1
 41 168 l 1
418 208 m 1
 459 208 l 1
 459 168 l 1
 418 168 l 1
 418 208 l 1
334 208 m 1
 375 208 l 1
 375 168 l 1
 334 168 l 1
 334 208 l 1
250 208 m 1
 291 208 l 1
 291 168 l 1
 250 168 l 1
 250 208 l 1
168 208 m 1
 209 208 l 1
 209 168 l 1
 168 168 l 1
 168 208 l 1
84 208 m 1
 125 208 l 1
 125 168 l 1
 84 168 l 1
 84 208 l 1
375 251 m 1
 418 251 l 1
 418 211 l 1
 375 211 l 1
 375 251 l 1
291 251 m 1
 334 251 l 1
 334 211 l 1
 291 211 l 1
 291 251 l 1
209 251 m 1
 250 251 l 1
 250 211 l 1
 209 211 l 1
 209 251 l 1
125 251 m 1
 168 251 l 1
 168 211 l 1
 125 211 l 1
 125 251 l 1
41 251 m 1
 84 251 l 1
 84 211 l 1
 41 211 l 1
 41 251 l 1
418 291 m 1
 459 291 l 1
 459 251 l 1
 418 251 l 1
 418 291 l 1
334 291 m 1
 375 291 l 1
 375 251 l 1
 334 251 l 1
 334 291 l 1
250 291 m 1
 291 291 l 1
 291 251 l 1
 250 251 l 1
 250 291 l 1
168 291 m 1
 209 291 l 1
 209 251 l 1
 168 251 l 1
 168 291 l 1
84 291 m 1
 125 291 l 1
 125 251 l 1
 84 251 l 1
 84 291 l 1
375 334 m 1
 418 334 l 1
 418 294 l 1
 375 294 l 1
 375 334 l 1
291 334 m 1
 334 334 l 1
 334 294 l 1
 291 294 l 1
 291 334 l 1
209 334 m 1
 250 334 l 1
 250 294 l 1
 209 294 l 1
 209 334 l 1
125 334 m 1
 168 334 l 1
 168 294 l 1
 125 294 l 1
 125 334 l 1
41 334 m 1
 84 334 l 1
 84 294 l 1
 41 294 l 1
 41 334 l 1
418 374 m 1
 459 374 l 1
 459 334 l 1
 418 334 l 1
 418 374 l 1
334 374 m 1
 375 374 l 1
 375 334 l 1
 334 334 l 1
 334 374 l 1
250 374 m 1
 291 374 l 1
 291 334 l 1
 250 334 l 1
 250 374 l 1
168 374 m 1
 209 374 l 1
 209 334 l 1
 168 334 l 1
 168 374 l 1
84 374 m 1
 125 374 l 1
 125 334 l 1
 84 334 l 1
 84 374 l 1
375 417 m 1
 418 417 l 1
 418 377 l 1
 375 377 l 1
 375 417 l 1
291 417 m 1
 334 417 l 1
 334 377 l 1
 291 377 l 1
 291 417 l 1
209 417 m 1
 250 417 l 1
 250 377 l 1
 209 377 l 1
 209 417 l 1
125 417 m 1
 168 417 l 1
 168 377 l 1
 125 377 l 1
 125 417 l 1
41 417 m 1
 84 417 l 1
 84 377 l 1
 41 377 l 1
 41 417 l 1
418 460 m 1
 459 460 l 1
 459 417 l 1
 418 417 l 1
 418 460 l 1
334 460 m 1
 375 460 l 1
 375 417 l 1
 334 417 l 1
 334 460 l 1
250 460 m 1
 291 460 l 1
 291 417 l 1
 250 417 l 1
 250 460 l 1
168 460 m 1
 209 460 l 1
 209 417 l 1
 168 417 l 1
 168 460 l 1
84 460 m 1
 125 460 l 1
 125 417 l 1
 84 417 l 1
 84 460 l 1
375 501 m 1
 416 501 l 1
 416 460 l 1
 375 460 l 1
 375 501 l 1
291 501 m 1
 332 501 l 1
 332 460 l 1
 291 460 l 1
 291 501 l 1
209 501 m 1
 250 501 l 1
 250 460 l 1
 209 460 l 1
 209 501 l 1
125 501 m 1
 166 501 l 1
 166 460 l 1
 125 460 l 1
 125 501 l 1
41 501 m 1
 82 501 l 1
 82 460 l 1
 41 460 l 1
 41 501 l 1
418 541 m 1
 459 541 l 1
 459 501 l 1
 418 501 l 1
 418 541 l 1
334 541 m 1
 375 541 l 1
 375 501 l 1
 334 501 l 1
 334 541 l 1
250 541 m 1
 291 541 l 1
 291 501 l 1
 250 501 l 1
 250 541 l 1
168 541 m 1
 209 541 l 1
 209 501 l 1
 168 501 l 1
 168 541 l 1
84 541 m 1
 125 541 l 1
 125 501 l 1
 84 501 l 1
 84 541 l 1
375 584 m 1
 418 584 l 1
 418 544 l 1
 375 544 l 1
 375 584 l 1
291 584 m 1
 334 584 l 1
 334 544 l 1
 291 544 l 1
 291 584 l 1
209 584 m 1
 250 584 l 1
 250 544 l 1
 209 544 l 1
 209 584 l 1
125 584 m 1
 168 584 l 1
 168 544 l 1
 125 544 l 1
 125 584 l 1
41 584 m 1
 84 584 l 1
 84 544 l 1
 41 544 l 1
 41 584 l 1
418 624 m 1
 459 624 l 1
 459 584 l 1
 418 584 l 1
 418 624 l 1
334 624 m 1
 375 624 l 1
 375 584 l 1
 334 584 l 1
 334 624 l 1
250 624 m 1
 291 624 l 1
 291 584 l 1
 250 584 l 1
 250 624 l 1
168 624 m 1
 209 624 l 1
 209 584 l 1
 168 584 l 1
 168 624 l 1
84 624 m 1
 125 624 l 1
 125 584 l 1
 84 584 l 1
 84 624 l 1
375 667 m 1
 418 667 l 1
 418 627 l 1
 375 627 l 1
 375 667 l 1
291 667 m 1
 334 667 l 1
 334 627 l 1
 291 627 l 1
 291 667 l 1
209 667 m 1
 250 667 l 1
 250 627 l 1
 209 627 l 1
 209 667 l 1
125 667 m 1
 168 667 l 1
 168 627 l 1
 125 627 l 1
 125 667 l 1
41 667 m 1
 84 667 l 1
 84 627 l 1
 41 627 l 1
 41 667 l 1
EndSplineSet
EndChar

StartChar: dkshade
Encoding: 9619 9619 260
Width: 500
VWidth: 0
Flags: WO
HStem: 0 41<41 82 125 166 209 250 291 332 375 416> 83 41<41 82 125 166 209 250 291 332 375 416> 167 43<41 82 125 166 209 250 291 332 375 416> 250 42<41 82 125 166 209 250 291 332 375 416> 334 41<41 82 125 166 209 250 291 332 375 416> 418 40<41 82 125 166 209 250 291 332 375 416> 501 43<41 82 125 166 209 250 291 332 375 416> 584 43<41 82 125 166 209 250 291 332 375 416> 647 20G<82 125 166 209 250 291 332 375 416 459>
VStem: 41 418<0 41 83 124 167 210 250 292 334 375 418 458 501 544 584 627> 82 43<41 83 124 167 210 250 292 334 375 418 458 501 544 584 627 667> 166 43<41 83 124 167 210 250 292 334 375 418 458 501 544 584 627 667> 250 41<41 83 124 167 210 250 292 334 375 418 458 501 544 584 627 667> 332 43<41 83 124 167 210 250 292 334 375 418 458 501 544 584 627 667> 416 43<41 83 124 167 210 250 292 334 375 418 458 501 544 584 627 667>
LayerCount: 2
Fore
SplineSet
416 334 m 1xff86
 375 334 l 1
 375 292 l 1
 416 292 l 1
 416 334 l 1xff86
332 334 m 1
 291 334 l 1
 291 292 l 1xff8c
 332 292 l 1
 332 334 l 1
250 334 m 1
 209 334 l 1
 209 292 l 1xff98
 250 292 l 1
 250 334 l 1
166 334 m 1
 125 334 l 1
 125 292 l 1xffb0
 166 292 l 1
 166 334 l 1
166 418 m 1
 125 418 l 1
 125 375 l 1
 166 375 l 1
 166 418 l 1
250 418 m 1xff98
 209 418 l 1
 209 375 l 1
 250 375 l 1
 250 418 l 1xff98
332 418 m 1xff8c
 291 418 l 1
 291 375 l 1
 332 375 l 1
 332 418 l 1xff8c
416 418 m 1xff86
 375 418 l 1
 375 375 l 1
 416 375 l 1
 416 418 l 1xff86
166 501 m 1xffb0
 125 501 l 1
 125 458 l 1
 166 458 l 1
 166 501 l 1xffb0
250 501 m 1xff98
 209 501 l 1
 209 458 l 1
 250 458 l 1
 250 501 l 1xff98
332 501 m 1xff8c
 291 501 l 1
 291 458 l 1
 332 458 l 1
 332 501 l 1xff8c
416 501 m 1xff86
 375 501 l 1
 375 458 l 1
 416 458 l 1
 416 501 l 1xff86
166 584 m 1xffb0
 125 584 l 1
 125 544 l 1
 166 544 l 1
 166 584 l 1xffb0
250 584 m 1xff98
 209 584 l 1
 209 544 l 1
 250 544 l 1
 250 584 l 1xff98
332 584 m 1xff8c
 291 584 l 1
 291 544 l 1
 332 544 l 1
 332 584 l 1xff8c
416 584 m 1xff86
 375 584 l 1
 375 544 l 1
 416 544 l 1
 416 584 l 1xff86
166 83 m 1xffb0
 125 83 l 1
 125 41 l 1
 166 41 l 1
 166 83 l 1xffb0
250 83 m 1xff98
 209 83 l 1
 209 41 l 1
 250 41 l 1
 250 83 l 1xff98
332 83 m 1xff8c
 291 83 l 1
 291 41 l 1
 332 41 l 1
 332 83 l 1xff8c
416 83 m 1xff86
 375 83 l 1
 375 41 l 1
 416 41 l 1
 416 83 l 1xff86
166 167 m 1xffb0
 125 167 l 1
 125 124 l 1
 166 124 l 1
 166 167 l 1xffb0
250 167 m 1xff98
 209 167 l 1
 209 124 l 1
 250 124 l 1
 250 167 l 1xff98
332 167 m 1xff8c
 291 167 l 1
 291 124 l 1
 332 124 l 1
 332 167 l 1xff8c
416 167 m 1xff86
 375 167 l 1
 375 124 l 1
 416 124 l 1
 416 167 l 1xff86
166 250 m 1xffb0
 125 250 l 1
 125 210 l 1
 166 210 l 1
 166 250 l 1xffb0
250 250 m 1xff98
 209 250 l 1
 209 210 l 1
 250 210 l 1
 250 250 l 1xff98
332 250 m 1xff8c
 291 250 l 1
 291 210 l 1
 332 210 l 1
 332 250 l 1xff8c
416 250 m 1xff86
 375 250 l 1
 375 210 l 1
 416 210 l 1
 416 250 l 1xff86
41 292 m 1xffc0
 82 292 l 1
 82 334 l 1xffa0
 41 334 l 1
 41 375 l 1xffc0
 82 375 l 1
 82 418 l 1xffa0
 41 418 l 1
 41 458 l 1xffc0
 82 458 l 1
 82 501 l 1xffa0
 41 501 l 1
 41 544 l 1xffc0
 82 544 l 1
 82 584 l 1xffa0
 41 584 l 1
 41 627 l 1xffc0
 82 627 l 1
 82 667 l 1
 125 667 l 1
 125 627 l 1
 166 627 l 1
 166 667 l 1
 209 667 l 1
 209 627 l 1
 250 627 l 1
 250 667 l 1
 291 667 l 1
 291 627 l 1
 332 627 l 1
 332 667 l 1
 375 667 l 1
 375 627 l 1
 416 627 l 1
 416 667 l 1
 459 667 l 1xffbe
 459 584 l 1
 459 501 l 1
 459 418 l 1
 459 334 l 1
 459 250 l 1
 459 167 l 1
 459 83 l 1
 459 0 l 1xffc0
 375 0 l 1
 291 0 l 1
 209 0 l 1
 125 0 l 1xffbc
 41 0 l 1
 41 41 l 1xffc0
 82 41 l 1
 82 83 l 1xffa0
 41 83 l 1
 41 124 l 1xffc0
 82 124 l 1
 82 167 l 1xffa0
 41 167 l 1
 41 210 l 1xffc0
 82 210 l 1
 82 250 l 1xffa0
 41 250 l 1
 41 292 l 1xffc0
EndSplineSet
EndChar

StartChar: quoteleft
Encoding: 8216 8216 262
Width: 500
VWidth: 0
Flags: W
HStem: 458 125<370 430>
VStem: 292 138<458 583 583 583> 292 78<583 683.816>
LayerCount: 2
Fore
SplineSet
370 583 m 1xa0
 430 583 l 1
 430 458 l 1
 292 458 l 1
 292 583 l 1xc0
 292 666 316 728 410 749 c 1
 386 714 370 646 370 583 c 1xa0
EndSplineSet
Validated: 1
EndChar

StartChar: quotereversed
Encoding: 8219 8219 265
Width: 500
VWidth: 0
Flags: HW
LayerCount: 2
Fore
SplineSet
399 583.47 m 1xa0
 399 520.47 415 452.47 439 417.47 c 1
 345 438.47 321 500.47 321 583.47 c 1xc0
 321 708.47 l 1
 459 708.47 l 1
 459 583.47 l 1
 399 583.47 l 1xa0
EndSplineSet
EndChar

StartChar: uni201F
Encoding: 8223 8223 269
Width: 500
VWidth: 0
Flags: HW
LayerCount: 2
Fore
SplineSet
398.998 582.787 m 1xa0
 399.165 519.788 415.345 451.83 439.438 416.894 c 1
 345.382 437.646 321.219 499.582 320.999 582.581 c 1xc0
 320.668 707.581 l 1
 458.668 707.945 l 1
 458.998 582.946 l 1
 398.998 582.787 l 1xa0
189.999 582.234 m 1xa0
 190.166 519.235 206.346 451.277 230.438 416.341 c 1
 136.383 437.093 112.219 499.029 112 582.028 c 1xc0
 111.669 707.028 l 1
 249.669 707.393 l 1
 249.999 582.394 l 1
 189.999 582.234 l 1xa0
EndSplineSet
EndChar

StartChar: dagger
Encoding: 8224 8224 270
Width: 500
VWidth: 0
Flags: W
HStem: 417 83<41 209 291 459> 647 20G<209 291>
VStem: 209 82<-83 417 500 667>
LayerCount: 2
Fore
SplineSet
41 417 m 25
 41 500 l 25
 209 500 l 25
 209 667 l 25
 291 667 l 25
 291 500 l 25
 459 500 l 25
 459 417 l 25
 291 417 l 25
 291 -83 l 25
 209 -83 l 25
 209 417 l 25
 41 417 l 25
EndSplineSet
EndChar

StartChar: daggerdbl
Encoding: 8225 8225 271
Width: 500
VWidth: 0
Flags: W
HStem: 132 78<41 209 291 459> 417 83<41 209 291 459> 647 20G<209 291>
VStem: 209 82<-83 132 210 417 500 667>
LayerCount: 2
Fore
SplineSet
41 417 m 1
 41 500 l 1
 209 500 l 1
 209 667 l 1
 291 667 l 1
 291 500 l 1
 459 500 l 1
 459 417 l 1
 291 417 l 1
 291 210 l 1
 459 210 l 1
 459 132 l 1
 291 132 l 1
 291 -83 l 1
 209 -83 l 1
 209 132 l 1
 41 132 l 1
 41 210 l 1
 209 210 l 1
 209 417 l 1
 41 417 l 1
EndSplineSet
EndChar

StartChar: twodotenleader
Encoding: 8229 8229 273
Width: 500
VWidth: 0
HStem: 0 21G<125 209 291 375> 63 20G<125 209 291 375>
VStem: 125 84<0 83> 291 84<0 83>
LayerCount: 2
Fore
SplineSet
291 0 m 1
 291 83 l 1
 375 83 l 1
 375 0 l 1
 291 0 l 1
125 0 m 1
 125 83 l 1
 209 83 l 1
 209 0 l 1
 125 0 l 1
EndSplineSet
EndChar

StartChar: ellipsis
Encoding: 8230 8230 274
Width: 500
VWidth: 0
HStem: 0 21G<41 125 209 291 375 459> 63 20G<41 125 209 291 375 459>
VStem: 41 84<0 83> 209 82<0 83> 375 84<0 83>
CounterMasks: 1 38
LayerCount: 2
Fore
SplineSet
375 83 m 1
 459 83 l 1
 459 0 l 1
 375 0 l 1
 375 83 l 1
209 83 m 1
 291 83 l 1
 291 0 l 1
 209 0 l 1
 209 83 l 1
41 83 m 1
 125 83 l 1
 125 0 l 1
 41 0 l 1
 41 83 l 1
EndSplineSet
EndChar

StartChar: uni2027
Encoding: 8231 8231 275
Width: 500
VWidth: 0
HStem: 253 162<201.042 298.958>
VStem: 177 146<276.625 391.375>
LayerCount: 2
Fore
SplineSet
177 334 m 0
 177 379 210 415 250 415 c 0
 290 415 323 379 323 334 c 0
 323 289 290 253 250 253 c 0
 210 253 177 289 177 334 c 0
EndSplineSet
EndChar

StartChar: endash
Encoding: 8211 8211 276
Width: 500
VWidth: 0
Flags: W
HStem: 292 83<41 375>
LayerCount: 2
Fore
SplineSet
41 375 m 1
 375 375 l 1
 375 292 l 1
 41 292 l 1
 41 375 l 1
EndSplineSet
EndChar

StartChar: emdash
Encoding: 8212 8212 277
Width: 500
VWidth: 0
Flags: W
HStem: 292 83<41 459>
LayerCount: 2
Fore
SplineSet
41 375 m 1
 459 375 l 1
 459 292 l 1
 41 292 l 1
 41 375 l 1
EndSplineSet
EndChar

StartChar: afii00208
Encoding: 8213 8213 278
Width: 500
VWidth: 0
Flags: W
HStem: 292 83<0 500>
LayerCount: 2
Fore
SplineSet
0 375 m 1
 500 375 l 1
 500 292 l 1
 0 292 l 1
 0 375 l 1
EndSplineSet
EndChar

StartChar: figuredash
Encoding: 8210 8210 283
Width: 500
VWidth: 0
Flags: W
HStem: 210 82<125 459>
LayerCount: 2
Fore
SplineSet
125 292 m 1
 459 292 l 1
 459 210 l 1
 125 210 l 1
 125 292 l 1
EndSplineSet
EndChar

StartChar: universal
Encoding: 8704 8704 284
Width: 500
VWidth: 0
HStem: 0 21G<165.162 337.748> 292 83<198 301> 647 20G<41 128.973 370.89 459>
LayerCount: 2
Fore
SplineSet
250 83 m 25
 301 292 l 25
 198 292 l 25
 250 83 l 25
41 667 m 25
 125 667 l 25
 183 375 l 25
 315 375 l 25
 375 667 l 25
 459 667 l 25
 334 0 l 25
 169 0 l 25
 41 667 l 25
EndSplineSet
EndChar

StartChar: uni2201
Encoding: 8705 8705 285
Width: 500
VWidth: 0
HStem: 0 21G<90 412.5> 584 83<147.516 360.537>
VStem: 41 84<104.625 559.636> 375 84<102.938 174 511 568.325>
LayerCount: 2
Fore
SplineSet
459 511 m 9
 375 511 l 17
 375 565 352 584 291 584 c 3
 259 584 241 584 209 584 c 17
 150 584 125 562 125 458 c 9
 125 361 125 307 125 210 c 3
 125 104 147 83 209 83 c 3
 241 83 259 83 291 83 c 27
 339 83 375 93 375 174 c 9
 459 174 l 17
 459 70 450 0 375 0 c 27
 278 0 222 0 125 0 c 27
 55 0 41 89 41 159 c 27
 41 292 41 366 41 499 c 27
 41 572 52 667 125 667 c 27
 222 667 278 667 375 667 c 27
 444 667 459 616 459 511 c 9
EndSplineSet
EndChar

StartChar: uni0338
Encoding: 824 824 286
Width: 500
VWidth: 0
Flags: W
LayerCount: 2
Fore
SplineSet
124 -166 m 25
 40 -166 l 25
 375 750 l 25
 459 750 l 25
 124 -166 l 25
EndSplineSet
Validated: 1
EndChar

StartChar: uni2204
Encoding: 8708 8708 288
Width: 500
VWidth: 0
Flags: W
HStem: 83 21G<200.038 375> 292 83<98 192 309 375> 584 83<41 309>
VStem: 375 84<83 292 375 540>
LayerCount: 2
Fore
SplineSet
126 -83 m 1
 42 -83 l 1
 75 -0 l 1
 41 -0 l 1
 41 83 l 1
 108 83 l 1
 192 292 l 1
 67 292 l 1
 98 375 l 1
 225 375 l 1
 309 584 l 1
 41 584 l 1
 41 667 l 1
 342 667 l 1
 375 750 l 1
 459 750 l 1
 426 667 l 1
 459 667 l 1
 459 -0 l 1
 159 -0 l 1
 126 -83 l 1
375 540 m 1
 309 375 l 1
 375 375 l 1
 375 540 l 1
276 292 m 1
 192 83 l 1
 375 83 l 1
 375 292 l 1
 276 292 l 1
EndSplineSet
EndChar

StartChar: uni2074
Encoding: 8308 8308 290
Width: 500
VWidth: 0
Flags: W
HStem: 458 83<125 209 291 375> 647 20G<209 291>
VStem: 209 82<375 458 541 667>
LayerCount: 2
Fore
SplineSet
209 667 m 25
 291 667 l 25
 291 541 l 25
 375 541 l 25
 375 458 l 25
 291 458 l 25
 291 375 l 25
 209 375 l 25
 209 458 l 25
 41 458 l 17
 41 541 l 1
 125 750 l 9
 209 750 l 25
 125 541 l 25
 209 541 l 25
 209 667 l 25
EndSplineSet
EndChar

StartChar: uni2081
Encoding: 8321 8321 291
Width: 500
VWidth: 0
Flags: W
VStem: 208 84<-83 210>
LayerCount: 2
Fore
SplineSet
41 126 m 25
 208 292 l 25
 292 292 l 25
 292 -83 l 25
 208 -83 l 25
 208 210 l 25
 124 126 l 25
 41 126 l 25
EndSplineSet
EndChar

StartChar: arrowboth
Encoding: 8596 8596 297
Width: 500
VWidth: 0
Flags: HW
HStem: 292 83<194 306>
LayerCount: 2
Fore
SplineSet
41 376 m 1
 194 458 l 1
 194 375 l 1
 306 375 l 1
 306 458 l 1
 459 375 l 1
 459 292 l 1
 306 210 l 1
 306 292 l 1
 194 292 l 1
 194 210 l 1
 41 292 l 1
 41 376 l 1
EndSplineSet
EndChar

StartChar: uni2196
Encoding: 8598 8598 299
Width: 500
VWidth: 0
HStem: 584 83<185 291>
VStem: 41 84<418 525>
LayerCount: 2
Fore
SplineSet
41 418 m 1
 41 667 l 1
 291 667 l 1
 291 584 l 1
 185 584 l 1
 417 351 l 1
 358 292 l 1
 125 525 l 1
 125 418 l 1
 41 418 l 1
EndSplineSet
Validated: 1
EndChar

StartChar: uni219B
Encoding: 8603 8603 304
Width: 500
VWidth: 0
Flags: W
HStem: 292 83<41 115 218 291>
LayerCount: 2
Fore
SplineSet
41 292 m 1
 41 375 l 1
 134 375 l 1
 166 517 l 1
 250 517 l 1
 218 375 l 1
 291 375 l 1
 291 458 l 1
 459 375 l 1
 459 292 l 1
 291 210 l 1
 291 292 l 1
 199 292 l 1
 163 132 l 1
 79 132 l 1
 115 292 l 1
 41 292 l 1
EndSplineSet
EndChar

StartChar: uni2160
Encoding: 8544 8544 306
Width: 500
VWidth: 0
Flags: W
HStem: 0 21G<125 375> 584 83<125 209 291 375>
VStem: 125 250<0 83 584 667> 209 82<83 584>
LayerCount: 2
Fore
SplineSet
125 0 m 25xe0
 125 83 l 25xe0
 209 83 l 25
 209 584 l 25xd0
 125 584 l 25
 125 667 l 25
 375 667 l 25
 375 584 l 25xe0
 291 584 l 25
 291 83 l 25xd0
 375 83 l 25
 375 0 l 25
 125 0 l 25xe0
EndSplineSet
Validated: 1
EndChar

StartChar: uni2161
Encoding: 8545 8545 307
Width: 500
VWidth: 0
Flags: W
HStem: -0 21G<41 459> 584 83<41 125 209 291 375 459>
VStem: 125 84<83 584> 291 84<83 584>
LayerCount: 2
Fore
SplineSet
291 83 m 1
 291 584 l 1
 209 584 l 1
 209 83 l 1
 291 83 l 1
41 -0 m 1
 41 83 l 1
 125 83 l 1
 125 584 l 1
 41 584 l 1
 41 667 l 1
 209 667 l 1
 291 667 l 1
 459 667 l 1
 459 584 l 1
 375 584 l 1
 375 83 l 1
 459 83 l 1
 459 -0 l 1
 291 -0 l 1
 209 -0 l 1
 41 -0 l 1
EndSplineSet
EndChar

StartChar: uni2162
Encoding: 8546 8546 309
Width: 500
VWidth: 0
Flags: W
HStem: 0 21G<0 500> 584 83<0 41 125 209 291 375 459 500>
VStem: 41 84<83 584> 209 82<83 584> 375 84<83 584>
CounterMasks: 1 38
LayerCount: 2
Fore
SplineSet
209 83 m 1
 209 584 l 1
 125 584 l 1
 125 83 l 1
 209 83 l 1
291 584 m 1
 291 83 l 1
 375 83 l 9
 375 584 l 25
 291 584 l 1
459 83 m 1
 500 83 l 1
 500 0 l 1
 250 0 l 1
 168 0 l 1
 0 0 l 1
 0 83 l 1
 41 83 l 1
 41 584 l 1
 0 584 l 1
 0 667 l 1
 168 667 l 1
 250 667 l 1
 500 667 l 1
 500 584 l 1
 459 584 l 1
 459 83 l 1
EndSplineSet
EndChar

StartChar: uni2163
Encoding: 8547 8547 310
Width: 500
VWidth: 0
Flags: W
HStem: 0 21G<0 500> 83 21G<125 287.727> 584 83<0 41 125 209 291 375 459 500>
VStem: 41 84<83 584> 209 82<541.232 584> 375 84<542.25 584>
CounterMasks: 1 1c
LayerCount: 2
Fore
SplineSet
375 584 m 25
 291 584 l 25
 333 210 l 25
 375 584 l 25
291 83 m 1
 209 584 l 1
 125 584 l 1
 125 83 l 1
 291 83 l 1
375 83 m 1
 500 83 l 1
 500 0 l 1
 250 0 l 1
 168 0 l 1
 0 0 l 1
 0 83 l 1
 41 83 l 1
 41 584 l 1
 0 584 l 1
 0 667 l 1
 168 667 l 1
 250 667 l 1
 500 667 l 1
 500 584 l 1
 459 584 l 1
 375 83 l 1
EndSplineSet
EndChar

StartChar: uni2164
Encoding: 8548 8548 311
Width: 500
VWidth: 0
Flags: W
HStem: 0 21G<203.966 296.034> 584 83<0 62 144 209 291 356 438 500>
LayerCount: 2
Fore
SplineSet
62 584 m 1
 0 584 l 1
 0 667 l 1
 41 667 l 1
 125 667 l 1
 209 667 l 1
 209 584 l 1
 144 584 l 1
 250 121 l 1
 356 584 l 1
 291 584 l 1
 291 667 l 1
 375 667 l 1
 459 667 l 1
 500 667 l 1
 500 584 l 1
 438 584 l 1
 291 0 l 1
 209 0 l 1
 62 584 l 1
EndSplineSet
EndChar

StartChar: uni2165
Encoding: 8549 8549 312
Width: 500
VWidth: 0
Flags: HW
HStem: 0 21<0 500> 83 21<212.273 375> 584 83<0 41 125 209 291 375 459 500>
VStem: 41 84<542.25 584> 209 82<541.232 584> 375 84<83 584>
CounterMasks: 1 1c
LayerCount: 2
Fore
SplineSet
125 584 m 25
 167 210 l 25
 209 584 l 25
 125 584 l 25
209 83 m 1
 375 83 l 1
 375 584 l 1
 291 584 l 1
 209 83 l 1
125 83 m 1
 41 584 l 1
 0 584 l 1
 0 667 l 1
 250 667 l 1
 332 667 l 1
 500 667 l 1
 500 584 l 1
 459 584 l 1
 459 83 l 1
 500 83 l 1
 500 0 l 1
 332 0 l 1
 250 0 l 1
 0 0 l 1
 0 83 l 1
 125 83 l 1
EndSplineSet
EndChar

StartChar: uni2169
Encoding: 8553 8553 313
Width: 500
VWidth: 0
Flags: W
HStem: 0 21G<0 209 291 500> 584 83<0 83 167 209 291 333 417 500>
VStem: 0 209<0 83 584 667> 291 209<0 83 584 667>
LayerCount: 2
Fore
SplineSet
83 584 m 1
 0 584 l 1
 0 667 l 1
 41 667 l 1
 125 667 l 1
 209 667 l 1
 209 584 l 1
 167 584 l 1
 250 417 l 1
 333 584 l 1
 291 584 l 1
 291 667 l 1
 375 667 l 1
 459 667 l 1
 500 667 l 1
 500 584 l 1
 417 584 l 1
 291 334 l 1
 417 83 l 1
 500 83 l 1
 500 0 l 1
 459 0 l 1
 375 0 l 1
 291 0 l 1
 291 83 l 1
 333 83 l 1
 250 250 l 1
 167 83 l 1
 209 83 l 1
 209 0 l 1
 125 0 l 1
 41 0 l 1
 0 0 l 1
 0 83 l 1
 83 83 l 1
 209 334 l 1
 83 584 l 1
EndSplineSet
EndChar

StartChar: uni216A
Encoding: 8554 8554 315
Width: 500
VWidth: 0
Flags: W
HStem: 0 21G<0 500> 83 21G<125 292> 584 83<0 41 125 292 459 500>
VStem: 375 84<83 584>
LayerCount: 2
Fore
SplineSet
125 584 m 1
 208 417 l 1
 292 584 l 1
 125 584 l 1
292 83 m 1
 208 250 l 1
 125 83 l 1
 292 83 l 1
375 584 m 1
 249 334 l 1
 375 83 l 1
 375 584 l 1
459 83 m 1
 500 83 l 9
 500 0 l 25
 0 0 l 25
 0 83 l 1
 41 83 l 1
 167 334 l 1
 41 584 l 1
 0 584 l 9
 0 667 l 25
 500 667 l 25
 500 584 l 1
 459 584 l 1
 459 83 l 1
EndSplineSet
EndChar

StartChar: uni2166
Encoding: 8550 8550 316
Width: 500
VWidth: 0
Flags: W
HStem: 0 21G<0 500> 83 21G<212.273 291> 584 83<0 41 125 209 354 395 459 500>
VStem: 41 84<543.221 584> 291 63<83 584 584 584> 395 64<83 584>
LayerCount: 2
Fore
SplineSet
354 584 m 1
 354 83 l 1
 395 83 l 1
 395 584 l 1
 354 584 l 1
125 584 m 1
 167 229 l 1
 209 584 l 1
 125 584 l 1
291 584 m 1
 209 83 l 1
 291 83 l 1
 291 584 l 1
459 83 m 1
 500 83 l 9
 500 0 l 25
 0 0 l 25
 0 83 l 1
 127 83 l 1
 41 584 l 1
 0 584 l 9
 0 667 l 25
 500 667 l 25
 500 584 l 1
 459 584 l 1
 459 83 l 1
EndSplineSet
EndChar

StartChar: uni216B
Encoding: 8555 8555 317
Width: 500
VWidth: 0
Flags: W
HStem: 0 21G<0 500> 83 21G<83 250> 584 83<83 250 375 416 459 500>
VStem: 333 42<83 584> 416 43<83 584>
LayerCount: 2
Fore
SplineSet
375 584 m 1
 375 83 l 1
 416 83 l 1
 416 584 l 1
 375 584 l 1
83 584 m 1
 167 417 l 1
 250 584 l 1
 83 584 l 1
250 83 m 1
 167 250 l 1
 83 83 l 1
 250 83 l 1
333 584 m 1
 208 334 l 1
 333 83 l 1
 333 584 l 1
459 83 m 1
 500 83 l 9
 500 0 l 25
 0 0 l 25
 0 83 l 1
 126 334 l 1
 0 584 l 9
 0 667 l 25
 500 667 l 25
 500 584 l 1
 459 584 l 1
 459 83 l 1
EndSplineSet
EndChar

StartChar: uni2167
Encoding: 8551 8551 318
Width: 500
VWidth: 0
Flags: W
HStem: 0 21G<0 500> 83 21G<176.074 250> 584 83<0 41 83 209 291 332 375 418 459 500>
VStem: 250 41<83 584 584 584> 332 43<83 584> 418 41<83 584>
LayerCount: 2
Fore
SplineSet
418 584 m 1
 375 584 l 1
 375 83 l 1
 418 83 l 1
 418 584 l 1
291 584 m 1
 291 83 l 1
 332 83 l 1
 332 584 l 1
 291 584 l 1
83 584 m 1
 149 210 l 1
 209 584 l 1
 83 584 l 1
250 584 m 1
 173 83 l 1
 250 83 l 1
 250 584 l 1
500 83 m 9
 500 0 l 25
 0 0 l 25
 0 83 l 1
 126 83 l 1
 41 584 l 1
 0 584 l 9
 0 667 l 25
 500 667 l 25
 500 584 l 1
 459 584 l 1
 459 83 l 1
 500 83 l 9
EndSplineSet
EndChar

StartChar: uni216C
Encoding: 8556 8556 320
Width: 500
VWidth: 0
HStem: 0 21G<0 459> 584 83<0 41 125 209>
VStem: 41 84<83 584> 375 84<83 210>
LayerCount: 2
Fore
SplineSet
459 0 m 1
 0 0 l 1
 0 83 l 1
 41 83 l 1
 41 584 l 1
 0 584 l 1
 0 667 l 1
 209 667 l 1
 209 584 l 1
 125 584 l 1
 125 83 l 1
 375 83 l 1
 375 210 l 1
 459 210 l 1
 459 0 l 1
EndSplineSet
EndChar

StartChar: SF100000
Encoding: 9472 9472 321
Width: 500
VWidth: 0
HStem: 210 82<0 500>
LayerCount: 2
Fore
SplineSet
0 292 m 1
 500 292 l 1
 500 210 l 1
 0 210 l 1
 0 292 l 1
EndSplineSet
EndChar

StartChar: uni2501
Encoding: 9473 9473 322
Width: 500
VWidth: 0
HStem: 169 165<0 500>
LayerCount: 2
Fore
SplineSet
0 334 m 1
 500 334 l 1
 500 169 l 1
 0 169 l 1
 0 334 l 1
EndSplineSet
EndChar

StartChar: SF110000
Encoding: 9474 9474 323
Width: 500
VWidth: 0
VStem: 209 82<-208 792>
LayerCount: 2
Fore
SplineSet
209 792 m 1
 291 792 l 1
 291 -208 l 1
 209 -208 l 1
 209 792 l 1
EndSplineSet
EndChar

StartChar: uni2503
Encoding: 9475 9475 324
Width: 500
VWidth: 0
VStem: 167 166<-208 792>
LayerCount: 2
Fore
SplineSet
167 792 m 1
 333 792 l 1
 333 -208 l 1
 167 -208 l 1
 167 792 l 1
EndSplineSet
EndChar

StartChar: SF010000
Encoding: 9484 9484 325
Width: 500
VWidth: 0
HStem: 210 82<291 500>
VStem: 209 82<-208 210>
LayerCount: 2
Fore
SplineSet
291 -208 m 25
 209 -208 l 25
 209 292 l 25
 500 292 l 25
 500 210 l 25
 291 210 l 25
 291 -208 l 25
EndSplineSet
EndChar

StartChar: SF020000
Encoding: 9492 9492 326
Width: 500
VWidth: 0
Flags: W
HStem: 210 82<0 209> 647 20G<209 291>
VStem: 209 82<292 667>
LayerCount: 2
Fore
SplineSet
209 667 m 25
 291 667 l 25
 291 210 l 25
 -0 210 l 25
 -0 292 l 25
 209 292 l 25
 209 667 l 25
EndSplineSet
EndChar

StartChar: SF080000
Encoding: 9500 9500 327
Width: 500
VWidth: 0
HStem: 210 82<291 500>
VStem: 209 82<-208 210 292 792>
LayerCount: 2
Fore
SplineSet
209 792 m 25
 291 792 l 25
 291 292 l 25
 500 292 l 25
 500 210 l 25
 291 210 l 25
 291 -208 l 25
 209 -208 l 25
 209 792 l 25
EndSplineSet
EndChar
